<?xml version="1.0" encoding="UTF-8"?>
<svg version="1.1" viewBox="0 0 1600 1600" width="1280" height="1280" xmlns="http://www.w3.org/2000/svg">
<path transform="translate(779,277)" d="m0 0h37l26 2 29 4 27 6 43 12 19 7 28 13 20 11 19 12 13 10 18 13 10 8 26 26 12 17 13 19 9 17 8 24 3 14 1 11v28l-3 17-5 15-9 17-13 16-12 12-10 7-16 8-16 6-20 4-19 2h-10l-1-2 6-12 4-17v-23l-5-19-7-17-9-15-11-14-11-12-14-11-15-11-16-9-25-12-21-7-25-6-22-3-17-1h-26l-20 2-25 5-27 8-20 9-25 14-28 19-11 9-15 16-10 10-7 8-10 14-9 12-9 14-10 19-13 28-8 20-5 17-6 28-1 12v13l2 18 4 15 4 10 6 7 6 1 8 1h14l10-2 15-6 12-9 11-13 5-10 4-14 2-11 1-17 3 1v2l4 2 10 10 7 8 13 14 7 8 7 7 7 8 12 12 3 2 9-1 6-3 14 9 6 5v3l-18 8-11 7-4 3 1 20 1 4 9-3 15-9 14-6 7-2 6 1 8 7 17 12 6 3 5-1 11-5 5 1 14 11 2 4-16 7-10 5h-2l1 3 21 12 15 9 16-8 19-10 6 1 14 9 2 2v3l-16 8-11 6h-2v2l9 3 27 13h5l16-9 11-6 6 2 18 10-1 3-15 6-9 5h-2v2l9 3 25 10 7-1 19-12h7l42 10 48 10 47 11 30 8 23 8 20 10 12 9 8 10 8 16 3 10 1 7v8l-4 14-7 14-9 10-10 7-28 14-3 1-3 11-4 17v6l1 2v9l-2 15-12 16-15 14-12 12-11 9-11 10-1 5 2 4-4 7-10 10-13 10-20 14-20 12-22 12-21 10-24 8-25 7-28 6-35 5-18 2h-65l-32-4-37-8-22-6-6-3 3-3 31-13 16-8 16-9 24-15 19-14 11-8 11-10 7-5 8-1 34-2 28-4 34-7 24-7 25-9 24-10 16-8 16-7 14-8 18-12 3-3v-5l-2-4-5-1-16-1-10-16-6-4-10-2h-7l-7 3-8 13-9 20-4 2h-19l-10-22-7-9v-2l-12-2h-10l-5 2-8 10-6 9-7 14-20-1-4-4-6-21-7-15-1-3-26-1-13-2-12-2-18-6-42-11-26-5-29-4-10-1h-50l-23 3-37 7-26 7-37 13-16 5-21 9-23 12-19 9-22 12-15 8-23 11-26 10-19 8-24 7-23 5-12 2h-11l1-2 24-10 24-11 23-11 15-11 18-13 14-11 16-13 10-9-1-4-8-10-13-21-10-18-2-6 7-3 13-3 32-3 8-1h18l28 3 6 2-1 6 6-1 20-11 16-7 7-4h2l-1-2-15-6-28-8-15-3-6-2-39 2-22 2-38 7-25 7-24 9-15 6-17 9-12 8-12 11-8 7-9 9-7 8-8 10-8 11-8 15-10 26h-1l1-16 3-22 8-29 7-19 9-19 9-13 14-18 22-24 17-13 16-8 20-8 16-5 23-4 17-1h27l22 2 24 5 20 6 29 10 31 15 10 6 14 7 2 2v4l16-3h7l7 2-13-11-16-10-16-11-13-11-17-12-14-9-8-4-8-3-8-2-36-12-8-4-3 2-9-3v-2l-1 2h-58l-26 2-8 1h-10l-3-8-6-22-6-28-4-29-2-23v-67l3-33 4-28 9-42 10-34 12-35 10-23 11-22 13-22 21-31 20-28 11-12 12-13 7-8 16-16 11-9 8-8 10-8 16-11 21-14 26-16 23-11 30-13 24-7 30-8 34-7 36-4zm-318 635 2 2v-2zm763 113-1 6 2-2z" fill="#060D2B"/>
<path transform="translate(779,277)" d="m0 0h37l26 2 29 4 27 6 43 12 19 7 28 13 20 11 19 12 13 10 18 13 10 8 26 26 12 17 13 19 9 17 8 24 3 14 1 11v28l-3 17-5 15-9 17-13 16-12 12-10 7-16 8-16 6-20 4-19 2h-10l-1-2 6-12 4-17v-23l-5-19-7-17-9-15-11-14-11-12-14-11-15-11-16-9-25-12-21-7-25-6-22-3-17-1h-26l-20 2-25 5-27 8-20 9-25 14-28 19-11 9-15 16-10 10-7 8-10 14-9 12-9 14-10 19-13 28-8 20-5 17-6 28-1 12v13l2 18 4 15 4 10 6 7 6 1 8 1h14l10-2 15-6 12-9 11-13 5-10 4-14 2-11 1-17 3 1v2l4 2 10 10 7 8 13 14 7 8 7 7 7 8 12 12 3 2 9-1 6-3 14 9 6 5v3l-18 8-11 7-12 8-11 12-2 3h-2l-2 4-7 9h-10l-10-4-4-5 1-10 3-4h2v-2h2l2-4 3-3v-4l-10 2v2l-5 4-5 3-3 3-3 5h-2l-2 5-13 13-14 8-2 4-10 4-12 2v2l-17 4h-15l-5-1v-2l-9-1-12-5-12-7-4-4-8-7-5-7-3-9h-2l-8-17-6-20-3-17-1-9 1-33 3-23 2-5 4-20 6-17 7-10h2v-3h2l2-5 2-4h2l2-5 6-11 4-7 7-11 6-9 9-15 6-14 3-6v-8l2-2 2-9 4-5 1-7 3-4 4-10 3-6 3-9 3-2 1-10 4-8 6-17 6-4 5-6 2-1-2-4 3-1h-9v3l-12 6h-2l-1 2-2 3-1 2h-2l-1 3h-2v2h-3l-1 4-4 4h-2v3h-2l-2 4-3 3h-2l-2 4-5 2-5 1-8 9-8 5-8 9-5 7-3 7-5 5-5 9-3 7-14 25-5 8h-2l-1 6h-2l-1 6-5 12-2 6h-2l-1 5-10 30-6 29-4 28v57l4 26 6 26 3 10-1 3-3-4-1-5h-2l-3-7-5-8-3-9-3-7-2-7-2-5v-3l-2-1-2-7-3-2v10l-1 4v15l5 35 7 29 2 8 7 20 11 25 4 6 4 4 2 4 1 4-2 1-9-3v-2l-1 2h-58l-26 2-8 1h-10l-3-8-6-22-6-28-4-29-2-23v-67l3-33 4-28 9-42 10-34 12-35 10-23 11-22 13-22 21-31 20-28 11-12 12-13 7-8 16-16 11-9 8-8 10-8 16-11 21-14 26-16 23-11 30-13 24-7 30-8 34-7 36-4z" fill="#0CDFFB"/>
<path transform="translate(600,436)" d="m0 0 4 1-1 2-1 4-6 7-4 3h-2l-1 6-5 14-3 5-1 10-4 2-2 9-6 12-3 7-1 1-2 9-4 5-1 7-2 4v6l-7 16-8 14-8 13-6 9-5 7-4 9-6 10h-2l-2 6-2 3h-2v3l-3 3-5 7-7 20-3 17-2 5-3 23-1 36 3 19 6 21 7 16 1 4h2l6 12 8 9 6 4 1 2 11 6 12 5 9 2v2h20l14-3h3v-2l15-4 3-2h4l1-4 10-6 8-6 9-9 3-5 3-2 3-5 4-4 5-3 3-1v-2l4-2 7-1v5l-3 1-3 6h-2v2l-4 4-1 10 3 3v2l5 1 5 2h10l7-9 18-20 6-3 1 3 1 17 1 5 3 1-11 10-5 4-3 8-5 4-9 4-21 9-12 5-16 6-10 4-18 6-4 2h-5v2l-9 3 6 3h28l19-4 9-3h2l1-2 11-3 11-5 14-8 9-7 11-8 14-10 15-10 4-2 4-4 6-3h2v2l-3 3 6 3 4 3 6 3 1 4-8 7-17 16-2 3 16-4 18-6h5l3 13 2 2-20 8-18 7-16 6-28 10-14 6-20 7-21 7-29 11-32 11-2 1 2 6 9 5 6 2 3 3h8l25-7 36-12 25-10 30-15 6-4 7 1-1 4-5 6 6 10 5 5-1 3-6 2v4l-28 12-21 8-17 7 1 5 6 3 9 5 2 1h10l34-12 32-12 27-13 6-3 5 1 2 1-1 10 4 5 4 2-1 7-1 3-9 2v2l-17 7-26 12-11 5v7h2l3 3 13 5v2h-8l-12-3-11-4-9-3-9-1-1-3h-2l-6-10v-2l-5-1v-2l-5 1h-6v3h-12l-8-5v-2l-24-1-5-2-3-3v-2l-2 1h-7l-9-3-3-3 1-4-5-2v-2h-2l-2-4h-7l-2-1-1 2-10-2-6-4-10 1-1 3-1-6-6-3-1-4-9-1-9 1-18-12-8-4-8-3-8-2-36-12-8-4-6-9-5-5-8-16-8-20-5-14-4-19-5-22-4-29v-15l2-14 4 2 4 11 3 6 2 7 4 12 4 8 4 6v4h2l3 6v-3l-7-28-4-22-1-9v-57l4-28 6-29 10-30 2-5h2l2-9 5-11 1-4h2l1-6h2l2-5 15-26 3-5 4-10 4-6 5-5 3-7 9-11 7-6 6-4 7-8h6l10-9 2-3h2v-3l4-1 2-4 1-3h3v-2l3-3h2l2-6 14-7h2v-3z" fill="#050E2C"/>
<path transform="translate(759,800)" d="m0 0 6 1 8 7 17 12 6 3 5-1 11-5 5 1 14 11 2 4-16 7-10 5h-2l1 3 21 12 15 9 16-8 19-10 6 1 14 9 2 2v3l-16 8-11 6h-2v2l9 3 27 13h5l16-9 11-6 6 2 18 10-1 3-15 6-9 5h-2v2l9 3 25 10 7-1 19-12h7l42 10 48 10 47 11 30 8 23 8 20 10 12 9 8 10 8 16 3 10 1 7v8l-4 14-7 14-9 10-10 7-28 14-3 1-3 11-4 17-4 1-2-3-1-12v-11l3-9 9-12 12-7 9-5 11-8 7-9 5-12v-12l-2-10h-3l-1 6-1 2h-2l-1 5-9 10h-2v2l-6 4-5 1v2l-9 5-12 1h-8l-15-3-3-3v-5l-9-2h-22l-20-1-5-2-6-1 2-5 5-5 9-11 5-5v-2h-12l-26 22-10 7-8 2-16-1-3-1v-2l-9-1-2-4 3-4 5-2 11-8 5-5h-2v-2l-6-1-9-3-11-5 2-4 12-9 7-5h2v-2l-10 3-16 8-15 9-26 14-19 5-17 1-9-1-10-3-1-5 5-4 1-2 6-2 3-3 25-12 17-9h2l-1-6-8-2h-11l-6-2-9-1-6 1-9-3-1-3 13-14 2-4-9 5-21 14-14 10-16 7-8 3-13 4-9 2h-13l-8-3v-2h-2v-3l16-7 13-5 11-5 44-18-1-4v-6l-2-1 1-2-7 1-13 4-7 2h-9l-14-7 1-7 9-10 2-3-10 5-5 4-9 5-11 8-10 7-15 7-16 6-9 3-20 2h-7l-8-4 1-3 9-4 7-4 9-3 13-5 11-5 45-17h2v-2l-2-1v-3l-2-5 1-2-6 1-12 4-16 3-4-1 1-3h-7l-5-3-4-4 1-4 11-11 2-5-9 6-7 4-10 6-9 7-10 6-25 12-10 4-17 4-18 3h-12l-6-3v-2l-4-1v-2l15-5 12-5 19-7 55-21 16-6-3-11v-4l-14 4-13 4-12 2 2-4 9-9 8-7 6-6h2l-2-4-7-3-5-4-4-2 2-3h2v-2l-10 5-4 4-11 7-16 11-11 8-10 8-18 11-19 7-5 2-12 4-16 3h-28l-7-3 1-2 9-2v-2l9-3 10-3 9-4 15-5 10-4 12-5 7-3 16-7 10-5 5-10 10-9 5-4-2-2 9-3 15-9 14-6z" fill="#15A5BE"/>
<path transform="translate(757,366)" d="m0 0h64l21 2 13 2 23 5 12 3 10 4-4 1-25-5-28-3h-54l-27 3-31 6-9 3-12 2 1 3v8l-9 17-3 8-2 3-2 17 1 5 4 9-1 7-1 3-23 13-28 19-11 9-15 16-10 10-7 8-10 14-9 12-9 14-10 19-13 28-8 20-5 17-6 28-1 12v13l2 18 4 15 4 10 6 7 6 1 8 1h14l10-2 15-6 12-9 11-13 5-10 4-14 2-11 1-17 3 1v2l4 2 10 10 7 8 13 14 7 8 7 7 7 8 12 12 3 2 9-1 6-3 14 9 6 5v3l-18 8-11 7-12 8-11 12-2 3h-2l-2 4-7 9h-10l-10-4-4-5 1-10 3-4h2v-2h2l2-4 3-3v-4l-10 2v2l-5 4-5 3-3 3-3 5h-2l-2 5-13 13-14 8-2 4-10 4-12 2v2l-17 4h-15l-5-1v-2l-9-1-12-5-12-7-4-4-8-7-5-7-3-9h-2l-8-17-6-20-3-17-1-9 1-33 3-23 2-5 4-20 6-17 7-10h2v-3h2l2-5 2-4h2l2-5 6-11 4-7 7-11 6-9 9-15 6-14 3-6v-8l2-2 2-9 4-5 1-7 3-4 4-10 3-6 3-9 3-2 1-10 4-8 6-17 6-4 5-6 2-1-2-4 3-1h-9v3l-12 6h-2l-1 2-2 3-1 2h-2l-1 3h-2v2h-3l-1 4-4 4h-2v3h-2l-2 4-3 3h-2l-2 4-5 2-5 1-8 9-4 1 3-5h2l2-5 14-15 8-8 8-7 7-6 4-5 16-11 21-14h3v-2l9-5 4-1v-2l5-3 7-3 15-8 16-6h4v-2l12-4 10-4 24-6 21-4z" fill="#0534A4"/>
<path transform="translate(413,949)" d="m0 0h27l22 2 24 5 20 6 29 10 31 15 10 6 14 7 2 2v4l16-3h7l10 3v3l9 3 20 8 43 14 26 10 11 4 31 12 24 10 32 13 12 6-3 1-36-10-30-7-33-5-18-2h-50l-23 3-37 7-26 7-37 13-16 5-21 9-23 12-19 9-22 12-15 8-23 11-26 10-19 8-24 7-23 5-12 2h-11l1-2 24-10 24-11 23-11 15-11 18-13 14-11 16-13 10-9-1-4-8-10-13-21-10-18-2-6 7-3 13-3 32-3 8-1h18l28 3 6 2-1 6 6-1 20-11 16-7 7-4h2l-1-2-15-6-28-8-15-3-6-2-39 2-22 2-38 7-25 7-24 9-15 6-17 9-12 8-12 11-8 7-9 9-7 8-8 10-8 11-8 15-10 26h-1l1-16 3-22 8-29 7-19 9-19 9-13 14-18 22-24 17-13 16-8 20-8 16-5 23-4z" fill="#0CDDF9"/>
<path transform="translate(1178,1071)" d="m0 0 2 1-8 12-2 7v11l1 12 1 2h3l2 8v9l-2 15-12 16-15 14-12 12-11 9-11 10-1 5 2 4-4 7-10 10-13 10-20 14-20 12-22 12-21 10-24 8-25 7-28 6-35 5-18 2h-65l-32-4-37-8-22-6-6-3 3-3 31-13 16-8 16-9 24-15 19-14 11-8 11-10 7-5 8-1 34-2 28-4 34-7 24-7 25-9 24-10 16-8 16-7 14-8 18-12 7-3 16-10 12-8 8-5 3-1h9l2 1-2-6-5-9-3-3-4-6 18-7h3v-2z" fill="#00AF56"/>
<path transform="translate(645,1104)" d="m0 0h12l11 7 15 10 19 12 15 8 25 11 28 9 23 5 43 5 14 1-2 4-17 17-11 9-13 10-18 12-14 8-22 12-25 10-22 6-17 3-11 1h-26l-20-3-16-5-17-7-25-13-18-11-15-11-14-11-10-9-9-7-7-7-6-8-11-9-4-5 1-4 10-6 24-12 19-7 25-8 17-5 26-6 32-5z" fill="#00B056"/>
<path transform="translate(371,561)" d="m0 0h2l-1 4h2l1 5v6l3 7 5 2v3l10 2v3l9 1 4 4 5 4 5 11v5l2 2 3 13 4 5 5 10 1 9v16l-4 20-5 27v11l-1 12v39l5 35 7 29 2 8 7 20 11 25 4 6 4 4 2 4 1 4-2 1-9-3v-2l-1 2h-58l-26 2-8 1h-10l-3-8-6-22-6-28-4-29-2-23v-67l3-33 4-28 9-42 10-34 12-35z" fill="#44F974"/>
<path transform="translate(422,753)" d="m0 0 4 2 4 11 3 6 2 7 4 12 4 8 4 6v4h2l3 6v-3l-7-28-1-10 2 4 8 32 3 9 5 13 8 16 13 24 8 12 9 12v5l2 1h10l25-3 25-5 17-4 15-5 4 1-9 3 6 3h28l19-4 9-3h2l1-2 11-3 11-5 14-8 9-7 11-8 14-10 15-10 4-2 4-4 6-3h2v2l-3 3 6 3 4 3 6 3 1 4-8 7-17 16-2 3 16-4 18-6h5l3 13 2 2-20 8-18 7-16 6-28 10-14 6-20 7-21 7-29 11-32 11-2 1 2 6 9 5 6 2 3 3h8l25-7 36-12 25-10 30-15 6-4 7 1-1 4-5 6 6 10 5 5-1 3-6 2v4l-28 12-21 8-17 7 1 5 6 3 9 5 2 1h10l34-12 32-12 27-13 6-3 5 1 2 1-1 10 4 5 4 2-1 7-1 3-9 2v2l-17 7-26 12-11 5v7h2l3 3 13 5v2h-8l-12-3-11-4-9-3-9-1-1-3h-2l-6-10v-2l-5-1v-2l-5 1h-6v3h-12l-8-5v-2l-24-1-5-2-3-3v-2l-2 1h-7l-9-3-3-3 1-4-5-2v-2h-2l-2-4h-7l-2-1-1 2-10-2-6-4-10 1-1 3-1-6-6-3-1-4-9-1-9 1-18-12-8-4-8-3-8-2-36-12-8-4-6-9-5-5-8-16-8-20-5-14-4-19-5-22-4-29v-15z" fill="#090233"/>
<path transform="translate(477,421)" d="m0 0 12 3 4 3 2 1v2l9 2 4 4 2 1 1 3h3v3h2v2l4-1h7l1 4-1 2 9-3h6l12-5 7-3h8l-2 9-1 2h-2l-3 9-10 9-9 9-8 11-9 9-8 9-5 7-3 7-5 5-5 9-3 7-14 25-5 8h-2l-1 6h-2l-1 6-5 12-2 6h-2l-1 5-10 30-6 29-4 28v57l4 26 6 26 3 10-1 3-3-4-1-5h-2l-3-7-5-8-3-9-3-7-2-7-2-5v-3l-2-1-2-7-3-2v10l-2 4v-24l1-18 1-12 8-40v-22l-4-9-5-8-5-15-1-5-2-6-5-8-4-2-2-3-9-2v-3l-8-1-2-1-2-3-5-3-2-6v-6l1-2-2-1 1-2h-2l1-4h-2l3-9 14-28 13-22 21-31 20-28 11-12 5-5h2v2l7-2 4-4z" fill="#1EF4CB"/>
<path transform="translate(413,949)" d="m0 0h27l22 2 24 5 20 6 29 10 31 15 10 6 14 7 2 2v4l11-1-3 2-13 4-20 8-5 3h-2v-2l-27-9-22-6-13-3-4-1-39 2-22 2-38 7-25 7-24 9-15 6-17 9-12 8-12 11-8 7-9 9-7 8-8 10-8 11-8 15-10 26h-1l1-16 3-22 8-29 7-19 9-19 9-13 14-18 22-24 17-13 16-8 20-8 16-5 23-4z" fill="#29F7C1"/>
<path transform="translate(1007,934)" d="m0 0h7l63 14 6 1v2l-15 6-15 9 9-3 17-7 11-4 11 1 28 6 23 6-3 3-12 7-5 5 17-8 8-3h12l16 6 14 8 13 11 9 10 1 3h-2l-1 6-1 2h-2l-1 5-9 10h-2v2l-6 4-5 1v2l-9 5-12 1h-8l-15-3-3-3v-5l-9-2h-22l-20-1-5-2-6-1 2-5 5-5 9-11 5-5v-2h-12l-26 22-10 7-8 2-16-1-3-1v-2l-9-1-2-4 3-4 5-2 11-8 5-5h-2v-2l-6-1-9-3-11-5 2-4 12-9 7-5h2v-2l-10 3-16 8-15 9-26 14-19 5-17 1-9-1-10-3-1-5 5-4 1-2 6-2 3-3 25-12 17-9h2l-1-6-8-2h-11l-6-2-9-1-6 1-9-3-1-3 13-14 1-2h2l-2 10 1 2h-2v2l7-1 19-1 14-5 26-11z" fill="#0CE0FA"/>
<path transform="translate(1178,1071)" d="m0 0 2 1-8 12-2 7v11l1 12 1 2h3l2 8v9l-2 15-5 7-3 1-5 5-9 8-7 3-12 8-8 9-11 7-13 10-7 5-5 5-14 9-9 5-12 6-32 15-3-1v2l-4 1-16-3-4-2-5-2-13-1-5-1-2-2-10-5-11-3v-2h-11l-9-1-46-1h-44l-6 2 4-7 13-10 8-1 34-2 28-4 34-7 24-7 25-9 24-10 16-8 16-7 14-8 18-12 7-3 16-10 12-8 8-5 3-1h9l2 1-2-6-5-9-3-3-4-6 18-7h3v-2z" fill="#009553"/>
<path transform="translate(935,937)" d="m0 0h3l-2 5-7 7-5 7v2l11 2 6-1 9 2 10 1 8 1 6 2 1 4-3 3-27 14-15 7h-2l-1 3-6 1-1 3-4 4v4l13 3h13l15-2 16-5 28-15 11-7 16-8 8-3 3 1-5 5-6 4-19 14-11 9-5 3-3 3h-2l-2 7v2l12 5 3 5-4 5h-2v2l-8 7-13 13-7 10v9l14 2h14l4 1 12-1 12-6 6-8h2l2-4 9-10 11-11 5-2h12l-2 6-7 8-9 11-7 10 1 4 2 1-1 2-9-1h-3-7l-2-3-4 2-7 4-17 1-27 1-11-1-4-2-1 2-6-1-13-3h-9l-12-3-4-2-11-3-9-3h-8v-2h-11l-9-3v-2l-13 1v-2h-8l-9-7v-4h-2l-2-5-3-1-15-1-15-6-1-7-4-2v-2l-10-1v-2l25-9 25-11 19-9 17-9 9-5 6-2v-2l17-9 10-8 12-8 4-4z" fill="#090232"/>
<path transform="translate(802,872)" d="m0 0h2l-2 6-11 11-1 3 4 2v2l5 2 7 1v3l14-2 12-3 7-3h5l-1 4 3 7v3l-28 11-14 5-12 5-21 9-9 3-6 4-6 2v2l7 3h11l16-2 32-12 11-6 8-6 10-7 10-6 11-7h3l-2 4-8 9-1 7 13 6h9l18-5 4-2h6v4l1 8 2 2-29 12-20 8-8 4-16 6-10 5h-3v3h2v2l10 2h11l15-4 13-4 15-7 8-4 13-10 8-5 2 1-17 12-9 7-12 6h-2v2l-6 3-9 5-19 10-28 13-19 8-24 8-8 1-15-6-1-3h-2l-1-7 16-8 33-15 6-1v-2l5-2h4l2-10-5-2-4-5 2-10-7-1-16 8-22 10-30 11-22 8-9 3h-10l-10-5-5-3-4-3 1-5 40-16 24-10h2v-4l6-2-1-5-5-5-3-4v-3l-2-1 6-7-1-3h-5l-9 6-39 18-30 11-29 9-15 4h-8l-4-4-6-2-9-5-2-6 9-4 40-14 18-7 13-4 6 2v2l6 2h12l28-5 11-3 16-8 21-10 10-8 11-7 8-4 5-4z" fill="#050D2D"/>
<path transform="translate(804,1251)" d="m0 0 2 3v2h14l25 1 20 2 12 3 11 1 13 4 9 2 19 2h14l16-1 6-1v4l-8 1-2 2-13 4-39 7-2 2v3l5 2 5 4 12 4 11 2h12l9-1 8-1 7 1-3 2-24 6-28 5-30 4-10 1h-65l-32-4-37-8-22-6-6-3 3-3 31-13 16-8 16-9 24-15z" fill="#02C257"/>
<path transform="translate(531,1130)" d="m0 0 3 1-7 3-1 4 8 2h17l8 4 5 4 5 3 6 7 7 8 7 6v2l6 3v2h3l4 6 11 10v2l4 2 9 8v2h2l9 11 9 8 5 5v2l3 1v2l4 1 6 7 2 1 3 8 5 1v2h36l-4 2-17 3-11 1h-26l-20-3-16-5-17-7-25-13-18-11-15-11-14-11-10-9-9-7-7-7-6-8-11-9-4-5 1-4 10-6 24-12z" fill="#44F975"/>
<path transform="translate(457,1034)" d="m0 0h18l28 3 6 2-1 6 6-1 6-2v4l5 2 3 5 1 18-17 9h-4l-1 2-5 2-4 4-21 10-21 12-10 7-9 6-12 9-1 3 4 1 1 1h9l10-2 16-8 3 1-23 12-20 11-23 11-26 10-19 8-24 7-23 5-12 2h-11l1-2 24-10 24-11 23-11 15-11 18-13 14-11 16-13 10-9-1-4-8-10-13-21-10-18-2-6 7-3 13-3 32-3z" fill="#44F975"/>
<path transform="translate(600,436)" d="m0 0 4 1-1 2-1 4-6 7-4 3h-2l-1 6-5 14-3 5-1 10-4 2-2 9-6 12-3 7-1 1-2 9-4 5-1 7-2 4v6l-7 16-8 14-8 13-6 9-5 7-4 9-6 10h-2l-2 6-2 3h-2v3l-3 3-5 7-7 20-3 17-2 5-2 16h-1v-14l6-28 3-9-3-25-3-1-2-5-4-1-2-5h-2l-2-2-3 1-7-2v2h-2v2h-2l-1 9h-2l2-10 6-16h2l2-9 5-11 1-4h2l1-6h2l2-5 15-26 3-5 4-10 4-6 5-5 3-7 9-11 7-6 6-4 7-8h6l10-9 2-3h2v-3l4-1 2-4 1-3h3v-2l3-3h2l2-6 14-7h2v-3z" fill="#022396"/>
<path transform="translate(400,504)" d="m0 0 3 1-2 6 7-1 1 4 3 2-1 4h2l2 3v4l4 1v2h5v2h3v2l3 1 5 6 3 1 4 8v2l4 1-1 5h2l2 4 7 4 13-1 1 4v8l-3 9-3 7-2 14-6 16-6 21-5 24-4 28v57l4 26 6 26 3 10-1 3-3-4-1-5h-2l-3-7-5-8-3-9-3-7-2-7-2-5v-3l-2-1-2-7-3-2v10l-2 4v-24l1-18 1-12 8-40v-22l-4-9-5-8-5-15-1-5-2-6-5-8-4-2-2-3-9-2v-3l-8-1-2-1-2-3-5-3-2-6v-6l1-2-2-1 1-2h-2l1-4h-2l3-9 14-28z" fill="#34F9A8"/>
<path transform="translate(789,374)" d="m0 0h54l28 3 5 1v1l-25 2-3 2-4 4-14 8-3 5-2 12 1 5 2 6v9l4-2-1 5-2 1 11 3 8 4 5 1-4 2-14-1-17-1h-26l-20 2-25 5-27 8-20 9h-2v-5h2l-4-11-2-4v-7l2-13 4-7 4-10 6-11 1-8-2-1 1-2 16-4 9-3 34-6z" fill="#07B1F2"/>
<path transform="translate(1014,990)" d="m0 0 2 1 3 2 9 4 13 4v2h2l-2 4-14 10-6 3-1 4 5 2 5 1v2l19 1 8-2 11-8 13-11 12-10h12v4l-7 7-7 9-3 4h-2l-1 4 12 3 25 1h16l8 3 1 7 17 3h18l-4 3-9 2v2l-7 3h-3v2l-8 3-10 1v2l-21 5-42 8-13 2h-17l-3-2-1-4 7-10 11-13 6-8 2-4-12 1-6 3-16 16-5 7h-2l-2 4-5 6-11 5-13 1-3-1h-16l-10-2-3-3v-7l9-12 18-18h2v-2h2l2-4v-3l-3-3-10-4-1-5 3-5 7-6 7-4z" fill="#062D64"/>
<path transform="translate(995,911)" d="m0 0h7l42 10 48 10 47 11 30 8 23 8 20 10 12 9 8 10 8 16 3 10 1 7v8l-4 14-7 14-9 10-10 7-28 14-3 1-3 11-4 17-4 1-2-3-1-12v-11l3-9 9-12 12-7 9-5 11-8 7-9 5-12v-12l-3-10-11-13-12-10-16-9-14-5h-12l-13 5-9 5h-3l2-4 13-8 4-2-18-5-27-6-10-2h-6l-16 6-19 8-3-1 14-9 14-6h3v-2l-12-1-30-7-27-6h-7l-13 4-28 12h-23l4-5 13-10 12-11 14-8z" fill="#FCFCFC"/>
<path transform="translate(1279,876)" d="m0 0 5 5 9 17 6 16 6 29 3 21 1 15v18l-2 22-5 28-5 18-6 16-9 19-15 25-8 11-9 12-10 11-7 8-3 4h-2l-1 3-8 7-13 11-20 14-25 15-9 4h-3v-2l11-9 31-31 13-17 9-12 15-24 10-18 9-13 6-9 12-22 13-27 7-20 6-24 2-19v-45l-2-16-4-18-6-16z" fill="#44F977"/>
<path transform="translate(422,753)" d="m0 0 4 2 4 11 3 6 2 7 4 12 4 8 4 6v4h2l3 6v-3l-7-28-1-10 2 4 8 32 3 9 5 13 8 16 13 24 8 12 9 12v5l2 1h10l25-3 25-5 17-4 15-5 4 1-9 3 6 3h28l19-4 9-3h2l1-2 11-3 11-5 14-8 9-7 11-8 8-6 2 1-12 10-19 14-10 6-9 5-11 7-21 10-33 12-31 9-28 6-7 1h-11l-13-3-5-5-1-9-7-2-3-2v-2l-4-1-5-3-9-4-2-1v-2l-6-2-8-10-5-5-9-7-8-9-5-9-1-3h-2l6 20 9 21 8 15-1 2-6-9-10-23-8-22-4-19-5-22-4-29v-15z" fill="#041D47"/>
<path transform="translate(637,691)" d="m0 0 3 1v2l4 2 10 10 7 8 13 14 7 8 7 7 7 8 12 12 3 2 9-1 6-3 14 9 6 5v3l-18 8-11 7-12 8-11 12-2 3h-2l-2 4-7 9h-10l-10-4-4-5 1-10 3-4h2v-2h2l2-4 5-5 14-12 10-7 1-2-3 1-9-4-14-8v-2l-3-1-4-5-5-5-1-3-3-2-2-7h-2l-2 6-7 12-10 13-9 8-7 5-11 5-13 3h-12l-10-3-10-6-7-7v-2l11 1h14l10-2 15-6 12-9 11-13 5-10 4-14 2-11z" fill="#FCFCFC"/>
<path transform="translate(636,1042)" d="m0 0h41l15 1 5 2-3 3-3 1-16 2-16 4-2 9 6 1v1l-23 3-37 7-26 7-37 13-16 5-21 9-23 12-11 5-9 3-15 7-10 1h-6l-5-3 1-4 13-10 11-7 14-9 20-11h3l1-2 8-4 3-1 4-4 17-8 10-5 11-4 28-10 18-5h5v-2l26-5z" fill="#1290AF"/>
<path transform="translate(802,872)" d="m0 0h2l-2 6-11 11-1 3 4 2v2l5 2 7 1v3l14-2 12-3 7-3h5l-1 4 3 7v3l-28 11-14 5-12 5-21 9-9 3-6 4-15 3v-3l6-2-1-5-5-5-3-4v-3l-2-1 6-7-1-3h-5l-9 6-39 18-30 11-29 9-15 4h-8l-4-4-6-2-9-5-2-6 9-4 40-14 18-7 13-4 6 2v2l6 2h12l28-5 11-3 16-8 21-10 10-8 11-7 8-4 5-4z" fill="#050F2E"/>
<path transform="translate(552,1123)" d="m0 0 3 1-2 2 2 3 3 1 22 1 9 4 14 7 8 7 3 3v2h2v2h2l3 7 6 5 2 4 4 3v2h2l5 5 10 8 9 10 13 12 6 4 10 6 5 5 10 7 12 6v2l3 1 2 5h12l13-3 1 2-24 9-8 2-16 1h-12l-12-1-6-3-2-4v-4l-4-2-5-6-3-1-3-3v-2l-4-2-14-14-5-6v-2h-2l-4-5-9-7-4-5-8-7-3-4v-2h-3v-2l-4-2-8-7-3-3v-2l-4-2-3-4v-2l-4-2v-2l-5-2-10-7-3-1h-18l-8-3 2-5 7-2v-2z" fill="#14DA58"/>
<path transform="translate(1178,1071)" d="m0 0 2 1-8 12-2 7v11l1 12 1 2h3l2 8v9l-2 15-5 7-3 1-5 5-9 8-7 3-12 8-7 6-6 2-14-4-6-2-7-3-6-4-12-6-7-3-11-4 5-4 11-6 18-12 7-3 16-10 12-8 8-5 3-1h9l2 1-2-6-5-9-3-3-4-6 18-7h3v-2z" fill="#04506A"/>
<path transform="translate(645,1104)" d="m0 0h12l11 7 15 10 19 12 15 8 25 11 28 9 23 5 43 5 14 1-2 4-17 17-11 9-13 10-7 5h-3l2-6-13-2-3-3-4-1-2-4-7-6-29-16-13-7-18-11-6-4v-2l-5-2-12-7-12-8-13-8-25-11-12-4-8-1h-7l-2-4 7-2 19-3z" fill="#009654"/>
<path transform="translate(1007,934)" d="m0 0h7l63 14 6 1v2l-15 6-13 8-7 3-7 4-8 1-16 7-15 9-16 9-15 8-19 5-17 1-9-1-10-3-1-5 5-4 1-2 6-2 3-3 25-12 17-9h2l-1-6-8-2h-11l-6-2-9-1-6 1-9-3-1-3 13-14 1-2h2l-2 10 1 2h-2v2l7-1 19-1 14-5 26-11z" fill="#15A6BF"/>
<path transform="translate(759,800)" d="m0 0 6 1 8 7 17 12 6 3 5-1 11-5 5 1 14 11 2 4-16 7-16 8-25 10-18 6-16 3 2-4 9-9 8-7 6-6h2l-2-4-7-3-5-4-4-2 2-3h2v-2l-10 5-4 4-11 7-16 11-11 8-10 8-18 11-19 7-5 2-12 4-16 3h-28l-7-3 1-2 9-2v-2l9-3 10-3 9-4 15-5 10-4 12-5 7-3 16-7 10-5 5-10 10-9 5-4-2-2 9-3 15-9 14-6z" fill="#15A5BE"/>
<path transform="translate(543,977)" d="m0 0 9 3 36 19 4 3v4l11-1-3 2-13 4-20 8-5 3h-2v-2l-27-9-22-6-13-3-4-1-39 2-22 2-38 7-25 7-22 8-10 1-12-1-1-3-6-1-3-5 1-3 13-8 25-12 6-2h5l1-2 2 1 1-2 4-1 2 1v-2l4 1 1-2 3 1v-2l5 1 1-2 3 1v-2l9-1h35l9 2h5v2l5-1v2l5-1v2l4-1v2l4-1v2l8 1 14 3 8 2 9-1 10-4 16-4 5-1 1-2 4-2 1-2h-2z" fill="#04536D"/>
<path transform="translate(554,383)" d="m0 0 1 2 7-1v1h13v1l8 1v6l3 2-2 5-1 2 4 1-3 3 3 2-5 3-1 5-2 4 4-1v3 2 3l-1 3-3 3h-2l-2 4h-2l-2 5-3 1 1-4-4 1-6 1-13 5-4 2-10 1-5 1-1-4 1-2-11 1v-2h-2v-3l-5 1-1-4-1-2-5-1v-2l-7-2v-2l-7-2-3-2-10-2-1 2v-2l-6 2-1 3-7 1-1-3 9-11 20-20 8-6-2 5-1 3 5-2 4-2 1-3 4-3 5-1 2 2h15l1 1 10-2v2z" fill="#18F8ED"/>
<path transform="translate(572,1117)" d="m0 0 4 2v2l20 2 14 4 10 6 8 5 10 8 5 5 13 10 13 11 8 7 8 6 14 11 8 6 14 9 3 3 6 3 8 6 9 5 5 2 16 2 2 3-17 9-7 2-18 3-8-1-3-5-2-1v-2l-6-2-9-5-11-8-1-3-5-2-5-3-9-7-13-12-9-10-12-9v-2h-2l-6-7-5-5-4-5v-4h-2v-2h-2v-2l-3-1-5-6-7-4-11-6-8-3-22-1-5-2-1-3 4-4z" fill="#02C257"/>
<path transform="translate(428,471)" d="m0 0 1 4-2 2-1 11 5 1h20l10-2v2l2 1 1 3-1 2h3v2h3v2l3 3 4 1v5h4l1 3h6l3 1 10-1-1 9-2 4-3 12-3 6v8l-11 19-3 5h-2l-1 6h-2l-1 6-5 12-2 6h-2l1-11 5-12 1-8v-7l-13 1-8-5-1-4h-2v-5l-3-1-4-8v-2l-4-1-2-1v-3l-3-1-2-4h-3v-2h-5l-1-2-3-1-2-7h-2v-4l-4-3-1-2-5 1-1-3 2-4v-4l11-17 5-3 6-9 4 1z" fill="#29F7C1"/>
<path transform="translate(1108,1211)" d="m0 0h2l-1 5h2l-1 4-5 11-9 8-15 11-16 11-24 14-27 14-20 8-20 6h-12l-13 1-8 1h-7l-13-3-10-3-10-7-1-4 3-2 34-6 13-2 20-5 16-5 9-2 33-13 28-13 9-5 10-3v-2l18-10 4-3 5-2z" fill="#009554"/>
<path transform="translate(478,813)" d="m0 0 9 2 5 8 2 8 4 4 10 5 11 9 6 3v4l-3 2 1 3 14-3h13l7 4h13l-2 1 3 8 5 4 2 4 1 12-36 8-20 3-11 1h-10l-3-2v-5l-10-13-11-18-11-21-7-14-2-5v-4h13v-3h2l1-3 2 1v-2z" fill="#090232"/>
<path transform="translate(931,944)" d="m0 0 2 1-9 10v3l11 2 6-1 9 2 10 1 8 1 6 2 1 4-3 3-27 14-15 7h-2l-1 3-6 1-1 3-4 4v4l13 3h13l15-2 16-5 28-15 11-7 16-8 8-3 3 1-5 5-7 4-11 3-9 5-3 3-9 5-9 3-1 3-4 2h-4l-1 3-24 13-8 4-21 9-15 6-21 9-13 4h-12l-13-4-3-5v-5l8-6 16-8 21-12 9-6h3v-2l9-6-2-4-5-3-8-4-5-3 1-4 4-5h2l2-4 4-2 1-3h3l1-3 5-3z" fill="#062E65"/>
<path transform="translate(301,991)" d="m0 0h2l1 2 4-1 3 1 1-1 9-1 14 4 5 2v6l-17 9-4 3h-2l1 5 3 3 4 1 2 2 19 1-2 2-13 5-17 9-12 8-12 11-8 7-9 9-7 8-8 10-8 11-8 15-10 26h-1l1-16 3-22 8-29 7-19 9-19 9-13 14-18 11-12z" fill="#44F976"/>
<path transform="translate(1056,1162)" d="m0 0 7 1 10 3 3 2 12 6 9 6 8 2 11 4 6 1 6-3 2 1-6 5-14 10-18 13-11 7h-5l-1 2-8-1v-2l-8-1-10-4-9-2-3-2v-2l-6-2-6-1-1-3-6 1-9-2-17 2-25 2-22 4h-8v-4l26-6 33-11 32-13 16-8z" fill="#027A57"/>
<path transform="translate(938,883)" d="m0 0 6 2 18 10-1 3-15 6-9 5h-2v2l9 3 28 11-6 7-13 11-9 7 18 1v1l-26 1v-4l2-10v-2l-9 5-21 14-14 10-16 7-8 3-13 4-9 2h-13l-8-3v-2h-2v-3l16-7 13-5 11-5 44-18-1-4v-6l-2-1 1-2-7 1-13 4-5 1h-9l1-4 17-16 8-7 8-6 7-3z" fill="#16A8C0"/>
<path transform="translate(777,1268)" d="m0 0 2 1-15 10 1 3h9l10-4h17l15 1 5 2 7 2 15 10 4 4 9 3v2l6 2 5 3v4l6 2v2l9 1h13l-2 1v2l-18 2h-65l-32-4-37-8-22-6-6-3 3-3 31-13 16-8z" fill="#14DA58"/>
<path transform="translate(769,376)" d="m0 0h7l-4 3-2 10-5 9-3 12-3 6-2 10 1 11-1 2h-2v2h-2v3l6 2-3 3-27 7-16 6-13 6h-2v-5h2l-4-11-2-4v-7l2-13 4-7 4-10 6-11 1-8-2-1 1-2 16-4 9-3z" fill="#0A93DA"/>
<path transform="translate(508,522)" d="m0 0 2 2v6l4 2-1 1 5 5-1 2 5 5 1 5 2 6v13l-2 14-4 11-4 8-2 5-6 11-4 12-4 10-8 21-3 9-3 17-2 5-2 16h-1v-14l6-28 3-9-3-25-3-1-2-5-4-1-2-5h-2l-2-2-3 1-7-2v2h-2v2h-2l-1 9h-2l2-10 6-16h2l2-9 5-11 1-4h2l1-6h2l2-5 15-26 4-7h2l2-7h2l2-5z" fill="#062060"/>
<path transform="translate(707,390)" d="m0 0 3 1 1 1v8l-9 17-3 8-2 3-2 17 1 5 4 9-1 7-1 3-23 13-22 15v-3l6-5 1-2-4 2-10 2-4-2-2-7-1-12 2-3 2-13 2-9 10-19 2-12 5-4 23-11 19-8z" fill="#0C70B4"/>
<path transform="translate(1136,996)" d="m0 0h14l23 5 9 6 4 6 5 3v2h8l13 1 4-2-2 4-8 9h-2v2l-6 4-5 1v2l-9 5-12 1h-8l-15-3-3-3v-5l-9-2h-22l-20-1-5-2-6-1 2-5 5-5 9-11 4-1 10-6 15-3z" fill="#15A7BF"/>
<path transform="translate(453,951)" d="m0 0h9l24 5 20 6 29 10 8 4v5h2l-1 3-5 3-7 3-17 4-11 4-10-1-6-2-11-2-9-3-7-1v-2l-5 1-6-2-6-1-32-3v-1l13-1-2-4-1-4 1-2-2-1v-3l2-1v-2l4-1 2-3 3-1 1-5 8 1 12 3 1-3z" fill="#26EED8"/>
<path transform="translate(869,881)" d="m0 0 12 5 25 12v3l-9 7-15 14-8 7-1 3h7v1h-9l-14-7 1-7 9-10 2-3-10 5-5 4-9 5-11 8-10 7-15 7-16 6-9 3-20 2h-7l-8-4 1-3 9-4 7-4 9-3 13-5 11-5 45-17h2v-2l-2-1v-3l-2-5 1-2-2-2 26-11z" fill="#118FB0"/>
<path transform="translate(1049,975)" d="m0 0 17 5 13 2 3 1 1 4-3 3-1 3 9-1 3 1v-2l7-1 18-10 5-2h7l2-1-2 4-8 7-13 13-7-1h-7l-26 22-10 7-8 2-16-1-3-1v-2l-9-1-2-4 3-4 5-2 11-8 5-5h-2v-2l-6-1-9-3-11-5 2-4 12-9 4-2z" fill="#15A7BF"/>
<path transform="translate(757,366)" d="m0 0h64l21 2 13 2 23 5 12 3 10 4-4 1-25-5-28-3h-54l-27 3-31 6-9 3-15 4-12 3-20 7-18 7-6 3-7 2-4 4h-3l-2 5-11 4-4 3-6 3-4 4h-5l2-4v-2l5-1 2-8 6-5 2-4 5-3h3v-2l5-3 7-3 15-8 16-6h4v-2l12-4 10-4 24-6 21-4z" fill="#022798"/>
<path transform="translate(763,898)" d="m0 0 2 1-20 11-20 12-37 17-30 11-29 9-15 4h-8l-4-4-6-2-9-5-2-6 9-4 40-14 18-7 13-4 6 2v2l6 2h12l28-5 11-3 16-8z" fill="#051F5F"/>
<path transform="translate(1178,1071)" d="m0 0 2 1-8 12-2 7v11l1 12 1 2h3l2 8v9l-1 11-4 4-5 4-17 1-7-6-5-5-5-2-12-5-7-1-9 2-8 5-2-1 10-7 18-11 10-7 5-2h9l2 1-2-6-5-9-3-3-4-6 18-7h3v-2z" fill="#041F49"/>
<path transform="translate(637,691)" d="m0 0 3 1v2l4 2 10 10 7 8 5 5v2h-2l-4-4-3-1-2 12-8 18-6 10-10 13-9 8-7 5-11 5-13 3h-12l-10-3-10-6-7-7v-2l11 1h14l10-2 15-6 12-9 11-13 5-10 4-14 2-11z" fill="#FCFCFC"/>
<path transform="translate(920,947)" d="m0 0 2 1-17 12-9 7-12 6h-2v2l-6 3-9 5-19 10-28 13-19 8-24 8-8 1-15-6-1-3h-2l-1-7 16-8 33-15 6-1v-2l17-6 5-3 6-2-3 3-5 1v3h2v2l10 2h11l15-4 13-4 15-7 8-4 13-10z" fill="#051F5E"/>
<path transform="translate(851,915)" d="m0 0 3 1-15 10-8 7-6 4h-2v2l-10 5-5 3-6 4-16 8-22 10-30 11-22 8-9 3h-10l-10-5-5-3-4-3 1-5 40-16 26-11 5-2 4 1v2l7 3h11l16-2 32-12 11-6 8-6 10-7z" fill="#084689"/>
<path transform="translate(753,823)" d="m0 0h2v2l-3 3 6 3 4 3 6 3 1 4-8 7-17 16-2 3 16-4 18-6h5l3 13 2 2-20 8-16 6-5-1-1-4h-17l-5 1h-10l-12-5 2-4 4-6 15-15 4-3 1-3 11-9 9-7-2-2z" fill="#073066"/>
<path transform="translate(481,706)" d="m0 0h3l1 17 1 2 3 26 2 12 6 16 9 21 9 12 9 10 14 9 16 6 18 4 12 1h19l-1 2-7 3-7 1v2l-17 4h-15l-5-1v-2l-9-1-12-5-12-7-4-4-8-7-5-7-3-9h-2l-8-17-6-20-3-17-1-9 1-33z" fill="#33F8A9"/>
<path transform="translate(1090,952)" d="m0 0 11 1 28 6 23 6-3 3-12 7-5 5 5-1-1 2-14 7-3 2 2-4 8-7h-2-7l-15 8-10 5-4-1v2h-12l1-4 2-4v-2l-16-2-15-4-2-1-16 2 3-4h2v-2l11-6 4-1 2 1 19-8z" fill="#0DE0F9"/>
<path transform="translate(625,1043)" d="m0 0h29l-1 3-9 2-6 2-11 4-25 9-30 10-7 3-16 7-7 4-15 5-3 2-8 1-5 1-17 2h-13l2-4h3l1-2 8-4 3-1 4-4 17-8 10-5 11-4 28-10 18-5h5v-2l26-5z" fill="#035169"/>
<path transform="translate(587,1010)" d="m0 0 2 1-10 5h-2v3l-2 2 8-1v-2h11l2 2-3 1-5 5-1 2h-2v2l2 1-3 4 7-1 8 3v2l3 1-1 5-9 3-4 1 3 2-23 6-31 11-7 3-2-6-1-12-3-5-4-2-1-5 15-8 16-7 7-4h2l1-2v2l16-8z" fill="#25EAD6"/>
<path transform="translate(1108,1211)" d="m0 0h2l-1 5h2l-1 4-5 11-9 8-15 11-16 11-24 14-19 10-4-1 3-6v-3l-7-2-24-3-3-1 34-13 20-9 23-11 9-4h2v-2l18-10 4-3 5-2z" fill="#04516B"/>
<path transform="translate(718,1043)" d="m0 0 27 9 54 22 24 10 10 5-3 1-36-10-30-7-33-5-18-2-56-1-1-3 3-7 4-2 17-4 11-1 4-2-1-2h8l11 2h4l-1-2z" fill="#0EDCF8"/>
<path transform="translate(1007,934)" d="m0 0h7l63 14 6 1v2l-15 6-10 6h-2v-2l-7 1-14 5-21 11-22 3-10-1h-15l-2-3 10-6 27-10 15-6-4-4v-2h-5l-8-5 1-4 9-4z" fill="#0EE0F9"/>
<path transform="translate(1279,876)" d="m0 0 5 5 9 17 6 16 6 29 3 21 1 15v18l-2 22-5 28-5 18-6 16-9 19-5 8-1-3 6-10 10-23 2-6v-10l5-21-2-1-3-5-4 1-2 5-5 11-2-1v-6l-2 1 3-10 5-16 5-23 1-13v-45l-2-16-4-18-6-16z" fill="#37F9A8"/>
<path transform="translate(435,848)" d="m0 0h2l4 6 5 9 8 8 6 4 3 3v2l4 2 6 7v2l6 2v2l15 6 5 3v2l10 4 2 9 4 4 19 4-4 3-7 1v1l4-1h9v2l11 1v3h-11l-4 3-15-6-8-2-36-12-8-4-7-10-11-21-8-20-4-13z" fill="#060D2B"/>
<path transform="translate(1085,1024)" d="m0 0v3l12 3 25 1h16l8 3 1 7 17 3h18l-4 3-9 2v2l-10 4-26 4h-7l-8 2-3-1-1-2-13-3-15-2-8-4-3-2h-2v-2l-3-1 1-4 5-7 5-5z" fill="#08488C"/>
<path transform="translate(746,828)" d="m0 0v3l-14 11-4 4h-2l-1 4-12 11-8 8-5 8 12 4h10l11-1h8l3 1 4 4v2l-16 6-28 10-14 6-12 4-2-1 1-4 6-4-9-2-6-10 1-2-6-3 4-4 9-6 8-4 16-11 15-12 5-5 19-13z" fill="#050E2D"/>
<path transform="translate(543,977)" d="m0 0 9 3 36 19 4 3v4l11-1-3 2-13 4-20 8-5 3h-2v-2l-27-9-22-6-11-2 2-2-18-6 4-1 11 3 9-1 10-4 16-4 5-1 1-2 4-2 1-2h-2z" fill="#1290B0"/>
<path transform="translate(454,623)" d="m0 0 1 4-5 17-5 24-4 28v57l4 26 6 26 3 10-1 3-3-4-1-5h-2l-3-7-5-8-3-9-3-7-2-7-2-5v-3l-2-1-2-7-3-2v10l-2 4v-24l2-19 6-28 11-37 7-15 4-9z" fill="#118EAD"/>
<path transform="translate(357,959)" d="m0 0 7 2 3 6v3h2l1 3 4 2 2 3 8 4 2 4h-2v2l-6 1-2-1v2l-6 1-9 3-17 7-5 1-1-5-9-3-9-2-8 1-4 1h-4l-2-1 1-4 15-12 16-9z" fill="#34F8A8"/>
<path transform="translate(877,851)" d="m0 0 6 1 14 9 2 2v3l-16 8-20 11-34 14-20 4-4-1 9-9 11-9 13-11 8-6 12-6z" fill="#FDFDFD"/>
<path transform="translate(1108,1015)" d="m0 0h32l16 2 9 4-1 7 1 1 12 1 1 2 7 2 14-3h5l-5 4-2 2h-4v2l-9 5-12 1h-8l-15-3-3-3v-5l-9-2h-22l-20-1-5-2-6-1 2-5 5-4v2l12-5z" fill="#0B6FB3"/>
<path transform="translate(361,993)" d="m0 0h3l3 3 18 3 18 5 1 4h6l-4 2-23 5-27 9-8 3-10 1-12-1-1-3-6-1-3-5 1-3 13-8 25-12z" fill="#019856"/>
<path transform="translate(812,817)" d="m0 0 5 1 14 11 2 4-16 7-16 8-25 10-18 6-16 3 2-4 9-9 8-7 10-9 20-11h2l2-4 6-1z" fill="#FDFDFD"/>
<path transform="translate(938,883)" d="m0 0 6 2 18 10-1 3-15 6-9 5h-2v3l-10 4-30 13-13 3h-9l1-4 17-16 8-7 8-6 7-3z" fill="#FCFCFC"/>
<path transform="translate(422,753)" d="m0 0 4 2 4 11 3 6 2 7 4 12 4 8 4 6v4h2l3 6v-3l-7-28-1-10 2 4 8 32 3 9 5 13 2 3 3 10 4 9-1 2-8-5-5-7v-2h-2v-2h-3l-8-10-5-5-5-7-4-11-3-8-2-8v7l1 3 2 16 6 26 2 9 8 24 11 23 3 5-1 2-6-9-10-23-8-22-4-19-5-22-4-29v-15z" fill="#044F69"/>
<path transform="translate(718,846)" d="m0 0 2 1-12 10-19 14-10 6-9 5-11 7-21 10-12 3-20 7-9 2h-7l-9 1-14-2-9-4-3-6 1-3 6-1v-2l17-4 15-5 4 1-9 3 6 3h28l19-4 9-3h2l1-2 11-3 11-5 14-8 9-7 11-8z" fill="#08488B"/>
<path transform="translate(636,1042)" d="m0 0h41l15 1 5 2-3 3-3 1-16 2-16 4-2 9 6 1v1l-23 3-37 7-22 6h-5l2-4 11-5-1-3-4-2 17-5 9-4 17-6 11-4 9-3 6-1 1-2h-18z" fill="#0C75B5"/>
<path transform="translate(657,716)" d="m0 0 5 1 2 4 4 1 16 17 14 15 9 9 5 4-11 6-5 3v-2l-3 1-9-4-14-8v-2l-3-1-4-5-5-5-1-3-3-2-3-7 1-6 3-9z" fill="#12E1FA"/>
<path transform="translate(650,738)" d="m0 0h2l3 7 3 2 3 5v2l4 2 5 5v2l5 2 10 6 9 3h2l-1 3-11 8-3 2v-2h-10l-9 5-5 2-7-3-8-8-6-14-1-1-2 1 2-4 7-10z" fill="#0C73B3"/>
<path transform="translate(1e3 935)" d="m0 0h10l-2 2-9 4 1 4 7 3 4 1v2l4 2 2 2-27 11-19 7-7 4-4-1 10-5h2l-1-6-8-2h-11l-6-2-9-1-6 1-9-3-1-3 13-14 1-2h2l-2 10 1 2h-2v2l7-1 19-1 14-5z" fill="#0C72B3"/>
<path transform="translate(1093,999)" d="m0 0h12v4l-7 7-7 9-4 4 1-4-14 1-9 5-8 8-9 7-5 5-7 4-2 1h-11l-19-3-8-1-2-2v-5l8-7 16-11 2 1 1 3 9 2v2l19 1 8-2 11-8 13-11z" fill="#08488C"/>
<path transform="translate(891,1101)" d="m0 0 16 1 41 6-3 5-10 13-8 16-20-1-4-4-6-21-6-12z" fill="#44F977"/>
<path transform="translate(759,800)" d="m0 0 6 1 8 7 17 12 5 3-2 4-22 12-2 1-4-4-6-2-4-4-4-2 2-3h2v-2l-10 5-2 3-4-1 1-3-3 1-4-2-2-12v-2l16-8z" fill="#10E0FB"/>
<path transform="translate(763,898)" d="m0 0 2 1-20 11-20 12-7 3-9 3-16 7-13 5-7 3-12 1h-5l-2-1v-2l-5-1-13-5v-6l8-5 13-4 8-3 6 2v2l6 2h12l28-5 11-3 16-8z" fill="#053C76"/>
<path transform="translate(866,906)" d="m0 0h3l-2 4-8 9-1 7 13 6h9l18-5 4-2h6v4l1 8 2 2-29 12-7 2-1-4-3-1h-28l-7-6 2-6 10-9 12-13 1-2-3-1z" fill="#062E65"/>
<path transform="translate(1020,1107)" d="m0 0h11l-6 11-10 22-4 2h-19l-10-22-7-9v-2l12-1z" fill="#45F87A"/>
<path transform="translate(717,958)" d="m0 0h2v2l-4 2 1 3 5 1 9 3 5 1h16l14-4 7-3 3 1-11 5-30 11-22 8-9 3h-10l-10-5-5-3-4-3 1-5 40-16z" fill="#051F5F"/>
<path transform="translate(508,522)" d="m0 0 2 2v6l4 2-1 1 5 5-1 2 5 5 1 5 2 6v13l-2 14-4 11-4 8-2 5-6 11-2-1 4-10 4-14v-27l-4-1-1-7-3-1-9 2-3 2-9 2v2l-2-1 13-23 3-5h2l2-7h2l2-5z" fill="#072E65"/>
<path transform="translate(802,872)" d="m0 0h2l-2 6-11 11-1 3 4 2v2l5 2 7 1v3l14-2 12-3 7-3h5l-1 4 3 7v3l-28 11-4 1-3-9-2-2-6 2-8 1-10 2-6 2h-11l-5-2 5-9 11-8 9-7 7-8 6-6z" fill="#062A63"/>
<path transform="translate(1014,990)" d="m0 0 2 1 3 2 9 4 13 4v2h2l-2 4-14 10-6 3-16 11-6 4-4 1v-2h2l2-4v-3l-3-3-10-4-1-5 3-5 7-6 7-4z" fill="#062E65"/>
<path transform="translate(993,1036)" d="m0 0 2 1-7 7-4 5v4l6 2 7 3 6 1 13-1 14 1 3-1 2-4 4-2-6 8-2 3h-2l-2 4-5 6-11 5-13 1-3-1h-16l-10-2-3-3v-7l9-12z" fill="#051F5F"/>
<path transform="translate(1146,985)" d="m0 0 17 1 7 2 16 5v2l4 1v2l5 1 3 7 5 4 9 1h7l-1 4h-2l-2 4-2 1-13-1-8-1-2-2-1-2-4-2-2-5-4-2-5-3-23-5h-14l-12 2-12 3-9 6h-2l2-4 6-5 9-5 6-4 13-4z" fill="#2FD1EA"/>
<path transform="translate(518,1042)" d="m0 0h2v4l5 2 3 5 1 18-17 9h-4l-1 2-5 2-4 4-21 10-5 3-2-1 10-7 4-6h2l4-8 2-9 4-6 5-7 3-8z" fill="#33F7A8"/>
<path transform="translate(935,937)" d="m0 0h3l-2 5-8 6-15 16-3 1-1 2-3 1-5 5-8 9v3l12 6 5 3 3 3-2 4-6 4h-2v2l-11 6-9 3 2-6-3-3-1-4v-7l1-6-2-7-2-2-3-1 2-4 5-1v-2l17-9 10-8 12-8 4-4z" fill="#050E2D"/>
<path transform="translate(920,947)" d="m0 0 2 1-17 12-9 7-12 6h-2v2l-6 3-3 2-8 1-3 3-24 11-10 3-5 1h-7l-17-4-3-2v-2l-3-1 2-4 8-3h2v-2l17-6 5-3 6-2-3 3-5 1v3h2v2l10 2h11l15-4 13-4 15-7 8-4 13-10z" fill="#08488C"/>
<path transform="translate(1114,1133)" d="m0 0 9 2 10 4 8 4 5 5 1 3 3 1h8l9-1 3-3 2 1-6 5-8 8-11 3-4 1-8-4-5-1-1-2-9-2-8-6-11-7-8 2h-5v2l-5 1 3-5 8-5h4l9-5z" fill="#062E65"/>
<path transform="translate(625,1043)" d="m0 0h29l-1 3-9 2-6 2-11 4-25 9-24 8h-7l-7-1v-3l4-2-2-1-1-3-1 3v-2l-11 1 1-2 24-8 8-2h5v-2l26-5z" fill="#094B8E"/>
<path transform="translate(557,895)" d="m0 0h5l-6 3 2 7 9 4 18 2 5-1h8l14-4 20-7 3 1-30 11-31 9-18 4h-10l-12-4-7-4-1-4 4-10 7-3z" fill="#062C63"/>
<path transform="translate(672,405)" d="m0 0 2 1-4 10-5 8-2 2-3 9-3 6-1 6-3 7-1 7 3 9 1 4 4 2v2l6 1v2l3 1-4 7-12 8v-3l6-5 1-2-4 2-10 2-4-2-2-7-1-12 2-3 2-13 2-9 10-19 2-12 5-4z" fill="#0A61A5"/>
<path transform="translate(756,1159)" d="m0 0h7l24 6 49 6 14 1-2 4-12 12-12 1-9-2-5-3-9-3-10-3-5-3-15-7-5-3-10-5z" fill="#037D5A"/>
<path transform="translate(1178,1071)" d="m0 0 2 1-8 12-2 7v11l1 12 1 3-9 3-8 2-5-8-7-14-4-4-4-6 18-7h3v-2z" fill="#31E57C"/>
<path transform="translate(518,969)" d="m0 0h9l16 7v5h2l-1 3-5 3-7 3-17 4-11 4-10-1-6-2-11-2-9-3-7-1v-2l22-1 10-2 7-1 10-5 9-4h4l-2-3z" fill="#16A8BF"/>
<path transform="translate(481,706)" d="m0 0h3l1 17 1 2 3 26 2 12 6 16 9 21 9 12v3l-3-3-4-1-7-6-4 1-3 1-7-16-6-21-3-22 1-33z" fill="#0DCFF1"/>
<path transform="translate(986,1268)" d="m0 0 10 2 18 2 9 3-1 4-2 3v3 1l-12 1-4 1-6 1h-8l-21-4-20-2-2 1-6-2 1-2 28-7z" fill="#027A56"/>
<path transform="translate(1e3 986)" d="m0 0 2 1-13 8-21 11-19 5-17 1-9-1-10-3-1-5 5-4 1-2 6-2 3-3 9-3-2 4 32 2h8l12-2z" fill="#0B6FB3"/>
<path transform="translate(926,942)" d="m0 0 2 1-19 12-13 10-18 8-8 3-13 4-9 2h-13l-8-3v-2h-2v-3l16-7 13-5 4-2 3 1-2 1 10-2h21l11-4 10-5 13-8z" fill="#0C70B3"/>
<path transform="translate(896,1286)" d="m0 0h7l-2 3v3l5 2 5 4 12 4 11 2h12l9-1 8-1 7 1-3 2-24 6-22 4h-8v-3l-7-1-15-6-5-3v-2l-4-1-5-4v-5l7-2z" fill="#01B158"/>
<path transform="translate(1025,980)" d="m0 0h2v2l-18 13-11 9-5 3-3 3h-2l-2 7v2l12 5 3 5-3 3h-4-3v5l-6 1v-2l-6-2-7-5-2-1-2-6-2-1h-9l-4 1 1-3 22-12 1-2 8-3 4-4 12-5 5-2 2-4 8-4z" fill="#060C2B"/>
<path transform="translate(559,1020)" d="m0 0 4 3v2h-2v2l-5 3h-2v2l-3 2-3 6v2l3 5v6h4l-1 6v3l-17 6-7 3-2-6-1-12-3-5-4-2-1-5 15-8 16-7 7-4h2z" fill="#1FF2CA"/>
<path transform="translate(931,944)" d="m0 0 2 1-9 10v3l11 2 6-1 9 2 10 1 8 1 6 2 1 4-3 3-19 10h-2l1-4-15-1-14-3-7-3-4-1 1-7 8-8 7-8z" fill="#09498D"/>
<path transform="translate(568,992)" d="m0 0h6l16 8 2 2v4l11-1-3 2-13 4-20 8-5 3h-2v-2l-27-9-5-2 2-2 9-1 12-3 12-5 5-2z" fill="#04516C"/>
<path transform="translate(1091,1097)" d="m0 0h12l-3 10-6 19-1 1-21-1-10-16-6-4 3-4 16-2h7v-2z" fill="#0A93DA"/>
<path transform="translate(1060,969)" d="m0 0h10l14 3 13 1 10 3h12l7-3 4 1-7 3h-3v2l-15 8-10 5-4-1v2h-12l1-4 2-4v-2l-16-2-15-4-2-1-16 2 3-4h2v-2l4 1 9-3z" fill="#2ED2EB"/>
<path transform="translate(695,861)" d="m0 0h2l-1 3-13 8-11 6-16 6-5 2-12 4-16 3h-28l-7-3 1-2 9-2v-2l9-3 5-2 3 1h14l18-4 12-2 10-3 12-3 11-5z" fill="#0B6FB2"/>
<path transform="translate(1066,1043)" d="m0 0v3l-4 5-1 5 5 2 9 3 10 1 15 1 4 2h15l13-3 2-1h7l-3 2-23 5-37 7-13 2h-17l-3-2-1-4 7-10 11-13z" fill="#051F5D"/>
<path transform="translate(753,823)" d="m0 0h2v2l-3 3 6 3 4 3 6 3 1 4-8 7-17 16-3 3-4-4-5-3v-2h-2l-1-7 3-7 6-8 8-6-2-2z" fill="#0C72B4"/>
<path transform="translate(875,1022)" d="m0 0 2 1-4 3h-2l1 8 9 3h31l-4 3-21 9-13 4h-12l-13-4-3-5v-5l8-6 16-8z" fill="#051F5F"/>
<path transform="translate(762,897)" d="m0 0 2 1-16 8-19 9-9 3-24 5-7 1h-12l-6-3v-2l-4-1v-2l21-7-1 2h6l7-1 24-4 15-4 9-2z" fill="#0C70B3"/>
<path transform="translate(424,790)" d="m0 0 3 3 3 13 4 8 3 7 5 6v2l3 1 4 5v2l3 1v2h3v2h2l4 6 1 3 5 2 3 1-6-14 1-3 10 21 7 12 2 8h-6l-10-7-7-6-7-8-5-6-8-12-8-13-5-12-2-2-1-11-1-3z" fill="#062D63"/>
<path transform="translate(924,994)" d="m0 0 4 1-4 2h-3l-1 3-4 4v4l13 3h13l15-2 16-5 6-3h2v2l-8 4-15 9-8 4-17 4h-7l-10-2-7 1-9-3-2-2v-3l-2-1 10-9 9-5h2v-2z" fill="#08478C"/>
<path transform="translate(361,993)" d="m0 0h3l3 3 18 3 18 5 1 4h6l-4 2-23 5-8 2-1-3-11-2-20-4-3-3v-3l18-8z" fill="#1190AE"/>
<path transform="translate(1167,1155)" d="m0 0 2 1-7 9-13 12-13 13-11 9-11 10-1 5 2 4-4 7-5 4 3-9 2-4h-2l1-5-8 5-8 4-10 6-12 6-4 1 1-3 6-3 6-4h2l2-4 8-6 5-5 17-13 12-8 8-9 14-9 5-2 10-9h2z" fill="#00AA58"/>
<path transform="translate(1108,1211)" d="m0 0h2l-1 5h2l-1 4-5 11-9 8-15 11-4-1-10-3-6-2 3-8 9-4h2v-2l18-10 4-3 5-2z" fill="#063767"/>
<path transform="translate(321,1011)" d="m0 0 2 1-4 3h-2l1 5 3 3 4 1 2 2 19 1-2 2-13 5-17 9-12 8-7-1-3-5v-7l4-6 6-7h2l1-3 14-10z" fill="#32E67E"/>
<path transform="translate(1123,1007)" d="m0 0h20l13 2 13 4 2 3 1 8 11 2 4 2 6 2 14-2-3 3-12 3-8 1-7-3-4-1-10-2 1-7-5-3-12-2-7-1h-32l-13 4-4 1 1-4 3-3h3l6-4z" fill="#118FB0"/>
<path transform="translate(1073,1037)" d="m0 0 1 2 4 1 13 3h13l10 1 3 2h12l3 4 10 3h11l8-2h6l-3 2-10 3-23 3-9 1-4 1-3-1-1-2-13-3-15-2-8-4-3-2h-2v-2l-3-1 1-4z" fill="#063C76"/>
<path transform="translate(1069,1041)" d="m0 0 4 4v2l3-1 5 4 5 2 15 2 13 3 1 3 7-1 9-1 23-3h5l-3 2-5 2-17 3-9 3-6 1h-15l-4-2-19-1-13-3-7-4v-5l5-6 1-3z" fill="#062D64"/>
<path transform="translate(669,797)" d="m0 0 10 4 10 8 1 4h2l-1 3h-2l-2 4-7 9h-10l-10-4-4-5 1-10 3-4h2v-2h2l2-4z" fill="#2ED2E9"/>
<path transform="translate(471,617)" d="m0 0 2 1v2l3-1 2 6 3 1 2 5 4 1 3 26-4 13-2-1-2-7-2-3-2 1-5-6-3-7-2-4-1-3-1-2-1-12h-1v-9h6z" fill="#0A0233"/>
<path transform="translate(836,923)" d="m0 0h2v2l-8 6-14 8-21 8-11 4-20 2h-7l-8-4 1-3 9-4 7-4 3 1h-2v2l5-1 23-3 16-4 17-6z" fill="#0C70B2"/>
<path transform="translate(413,949)" d="m0 0h27l14 1 1 5h-2v2l-10-1-9-2-1 4-4 2-2 3h-4v2l-5-1-1-2-13-2h-12l-11 1-4-3-6 2-5-1 1-3 11-3 18-3z" fill="#1FF5C9"/>
<path transform="translate(1091,999)" d="m0 0 2 1-26 22-10 7-8 2-16-1-3-1v-2l-9-1-2-4 3-4 5-2 8-6 2 1-1 2h12l11 2 10-2 7-3 11-8z" fill="#0B6FB3"/>
<path transform="translate(1293,905)" d="m0 0 2 3 1 6 2 2 4 21 2 14 1 6-1 22-3 9-3 4h-2l-1 14-2 2v-75l-2-16v-9z" fill="#30E581"/>
<path transform="translate(716,1297)" d="m0 0 1 2 6 2 4-1 12 3 1-2 3 1 1-2 1 3 2-1h6l2 1v-2h6l1 2 5 1v2l5 1 5 3v2l14 2 16 3 35 1 43 1v1l-10 1h-65l-32-4-37-8-22-6-6-3z" fill="#43F978"/>
<path transform="translate(636,764)" d="m0 0 1 4 7 14 7 7 8 3 1-2 11-6h11l-1 4-10 8-2-3-10 2v2l-5 4-5 3-4 2-6-8-5-5-4-8-1-7 1-5-3 1-1 3-2-1 7-8z" fill="#08488C"/>
<path transform="translate(1041,961)" d="m0 0 4 1h-3v2l-19 9-9 5-22 3-10-1h-15l-2-3 10-6 17-6h29l6 1z" fill="#2ED2EB"/>
<path transform="translate(561,439)" d="m0 0h8l-2 9-1 2h-2l-3 9-10 9-11 11 1-5 11-13 4-4 1-3-14 7-6 1-4 1v3l-3-1 2-3-2 1h-7v-3l-3-2 6-9h5l7-2 5-1 11-4z" fill="#26EED8"/>
<path transform="translate(865,980)" d="m0 0h5l-4 4-16 8-28 13-16 3h-11l-11-2-9-4v-5l5-3h2v-2l10-5h2v3l5 4 17 4h7l10-2 18-8 11-5h2z" fill="#062D64"/>
<path transform="translate(766,907)" d="m0 0v3l-2 4 4 1h11l11-3 9-2h5l6-2 4 8v4l-11 5-14 5-9 4-2-1 8-4h2l-4-4-20-1-10-3 1-4 3-1v-2l5-3z" fill="#041E48"/>
<path transform="translate(724,916)" d="m0 0 4 1-16 8-10 4-14 4-7 1h-15l-9-2-9-4 3-5 7-4 9-2 4 2v2l6 2h12l28-5z" fill="#08488C"/>
<path transform="translate(713,925)" d="m0 0 3 1-23 11-32 12-20 3h-9l-11-7-1-2 2-8 6-5 11-4 2 1-4 2-1 6 11 3 9 4v2l17-2 16-6 13-6z" fill="#062D64"/>
<path transform="translate(757,366)" d="m0 0h64l21 2 13 2 23 5 12 3 10 4-4 1-25-5-28-3h-54l-17 1v-2l9-1h13l-1-4-3-1-33-1z" fill="#063DA5"/>
<path transform="translate(662,884)" d="m0 0 3 1-8 5-19 9-12 3-20 7-9 2h-7l-9 1-14-2-9-4-3-6 1-3 6-1v-2l6-1 1 4 1 1 19 3 2 1h17l20-4 18-5 15-8z" fill="#063C76"/>
<path transform="translate(1105,1025)" d="m0 0h24l16 1 9 3 1 5 5 2 12 2 4 1 7 1 10-3v2l-9 5-12 1h-8l-15-3-3-3v-5l-9-2h-22l-20-1-7-3 1-2z" fill="#095FA3"/>
<path transform="translate(424,811)" d="m0 0h1l5 22 4 19 10 27 10 22 5 5 3 6 2 1-1 5-6-2v-5h-3l-3-7-5-6-8-17-2-6-5-8-4-14-2-11-5-20 1-4 2-2z" fill="#32E57B"/>
<path transform="translate(703,869)" d="m0 0 1 2-4 6 12 4h10l11-1h8l3 1 4 4v2l-16 6-11 4-2-1-2-5h-9l-9-1-7-4-1-5 8-7z" fill="#041E48"/>
<path transform="translate(464,1127)" d="m0 0 3 1-23 12-20 11-11 5-10 2-3-2v-8l4-2v-2l17-12 4-3 2 1-3 5 4 1 1 1h9l10-2z" fill="#32E57B"/>
<path transform="translate(935,911)" d="m0 0 9 3 28 11-6 7-8 6 1-3-15-2-3-1v-2h-2l-5-6-3-3-4-3-2-1v-2z" fill="#30D3E9"/>
<path transform="translate(694,1044)" d="m0 0h8l14 3 3 2-18 3-8 4-2 5v1l-17 3h-17l-1-3 3-7 4-2 17-4 11-1 4-2z" fill="#0A93DA"/>
<path transform="translate(718,1043)" d="m0 0 27 9 7 3-3 1-15-3-13-1-8 5 2 2 6 2 2 2 6 1-1 2h-15l-39-1 3-2 13-2 2-5 7-4 12-3 5-1v-3z" fill="#0AB3EE"/>
<path transform="translate(802,846)" d="m0 0h3l4 4 25 14 8 5-2 4-9 7-1-2-4-1-9-6-5-5-3-1-5-5v-4l-5-2-5-4z" fill="#2FD2E9"/>
<path transform="translate(836,938)" d="m0 0 1 4 6 5h28l5 3-1 4-13 5-8 4-9 2 2-1-1-2v-6h-10l-8-3-2-4 7-8z" fill="#041E48"/>
<path transform="translate(802,947)" d="m0 0 4 1-4 3-16 8-9 4-18 6-8 2h-16l-12-3-7-3v-2l-2-1 2-2h3l1-3 10-4 2 1-3 1 3 4 4 1v2h14l16-1 5-1 16-4 7-4h2l1-3z" fill="#063C76"/>
<path transform="translate(869,881)" d="m0 0 12 5 25 12v3l-9 7-4 3-1-3-2-1v-2l-5-1-7-4v-2l-4-1-6-4-10-6 2-2z" fill="#30D3EA"/>
<path transform="translate(1043,966)" d="m0 0h5v2l-7 4-8 1-16 7-10 6-7 3-11 5-12 2h-11l-26-2-3-1 2-5 10-5 2 1-1 3h2v2l11-1 9-3 10 1 1 2h8l8-2 9-4 17-9 10-5z" fill="#118FB0"/>
<path transform="translate(717,958)" d="m0 0h2v2l-4 2 1 3 5 1 9 3 5 1h16l14-4 7-3 3 1-11 5-22 8-20 3-16-4-6-5v-4l3-3z" fill="#062D64"/>
<path transform="translate(454,623)" d="m0 0 1 4-5 17-5 24-4 28-2 5-1 18-3 1-2-9 1-4-1-5 1-3v-7h-2v-9l7-24 7-15 4-9z" fill="#14A0BD"/>
<path transform="translate(728,838)" d="m0 0 2 1-16 11-11 8-6 4-5 2-13 6-10 2-14 4-23 4-3 1h-15l4-4 7-2 5-2 6 1 15-4 7-1 17-5 10-2 1-2 6-1 8-4 5-4 12-6 5-4z" fill="#118EAF"/>
<path transform="translate(805,869)" d="m0 0 4 1 2 5 4 5 3 1 2 4-1 5-12 11-1-2h-7l-5-3-4-4 1-4 11-11 2-7z" fill="#0C71B3"/>
<path transform="translate(1014,990)" d="m0 0 2 1 3 2 9 4 13 4v2h2l-2 4-14 10h-3l1-4-6-4v-2h-8v-2l-5-1-2-4 6-7z" fill="#08488C"/>
<path transform="translate(472,587)" d="m0 0 3 1 1 13 4 17 6 11 1 2h-4l-2-5-4-1-2-5h-2l-2-2-3 1-7-2v2h-2v2h-2l-1 9h-2l2-10 6-16h2l2-9 3-7z" fill="#041F4A"/>
<path transform="translate(910,964)" d="m0 0 2 1-3 2zm-4 3 3 1-8 7v4l6 2 11 4 16 3v3l-14 6-3 1v2l-12 7-5 4-6 1 3-3 3-2h3v-2l9-6-2-4-5-3-8-4-5-3 1-4 4-5h2l2-4 4-2z" fill="#041D48"/>
<path transform="translate(446,1116)" d="m0 0 3 4v2l13 2 7-1-2 4-18 8-6 2-8 1h-6l-5-3 1-4 13-10z" fill="#009553"/>
<path transform="translate(734,839)" d="m0 0v3l-3 5-1 7 1 2-1 2h2v2l5 2 4 3-1 5-6 3-9 1-11-2v-2l-4-2 2-5 5-4 8-10 1-3z" fill="#09498D"/>
<path transform="translate(839,894)" d="m0 0h5l-1 4 3 7v3l-28 11-3-1 2-7-1-5v-3h-7v-1l20-4z" fill="#07346A"/>
<path transform="translate(654,1043)" d="m0 0h12l7 1v1l-8 2-9 3-12 3-10 4-6 3-13 5-4 1-4 2-13 3h-5l-5-2 2-2 15-4 9-4 17-6 11-4 9-3 6-1z" fill="#0A61A5"/>
<path transform="translate(543,898)" d="m0 0h5l-4 2h-3l-2 5v5l3 2 17 5 3 1h10l9-1-4 2-21 5h-10l-12-4-7-4-1-4 4-10 7-3z" fill="#051F5F"/>
<path transform="translate(433,1104)" d="m0 0h2l2 7-5 5-6 4-2 4-5 1v2l-6 5-5 3-3 3-7 3h-3v-2h-2l2-4 6-7 14-11 6-3 10-9z" fill="#32E57B"/>
<path transform="translate(530,1044)" d="m0 0h9l2 1v2l5 2 1 4 3 1-3 5-1 6-10 3-6 3-2-6-1-12-3-5-2-2z" fill="#29F6C1"/>
<path transform="translate(654,729)" d="m0 0 2 4 2 6h2l1 4h2l7 8 7 6 4 4 16 8 6 2-5 4-2 1v-2l-3 1-9-4-14-8v-2l-3-1-4-5-5-5-1-3-3-2-3-7 1-6z" fill="#2FD2EA"/>
<path transform="translate(774,887)" d="m0 0 4 1-9 7-5 3-16 3-9 2-21 5-20 3-8 1-4-1 8-5 7-2 4 1 5-2 11-2 12-2 21-6 6-1 9-2z" fill="#118FB0"/>
<path transform="translate(650,738)" d="m0 0h2l3 7 3 2 3 5v2l4 2 5 5v2l5 2 10 6 9 3h2l-1 3-4 3-12-3-11-8-6-4v-2l-4-2-2-3h-2v-2h-2l-4-9-2 1 2-6z" fill="#16A8C0"/>
<path transform="translate(1025,982)" d="m0 0 2 1-2 2 5 1 11 3 5 2v2l5 1 7 2-2 4-12 6h-3l2-3h-2v-2l-6-1-9-3-11-5 2-4z" fill="#0C70B3"/>
<path transform="translate(810,979)" d="m0 0 2 1-4 3v4l13 4h14l24-8 3 1-24 11-10 3-5 1h-7l-17-4-3-2v-2l-3-1 2-4 8-3h2v-2z" fill="#063C75"/>
<path transform="translate(601,1047)" d="m0 0h12l-5 5-5 3-14 5-15 4-3 1h-5l-1-4-1 3v-2l-11 1 1-2 24-8 8-2h5v-2z" fill="#064079"/>
<path transform="translate(461,951)" d="m0 0 25 5 20 6 17 6-2 2 2 4-10 4-10 1 1-4 5-3h4v-2l-4-1-12-6-16-2-12-2-12-4v-2z" fill="#1EEACB"/>
<path transform="translate(1134,993)" d="m0 0h29l15 5v2l6 1 4 2-1 6h2v2l7 2v2h2v2l11 1v2l-18-2-2-2-1-2-4-2-2-5-4-2-5-3-23-5h-14l-12 2-10 1 3-2 7-3z" fill="#0CE0FC"/>
<path transform="translate(1074,1019)" d="m0 0h14l-2 5-8 9-9 9-1-2 2-4-12 1-6 3-5 4 1-5 13-11 7-6z" fill="#062260"/>
<path transform="translate(896,1011)" d="m0 0 3 1-2 2 3 5 10 3 8-1 8 2h7l12-3 3 1-20 9h-13l-18-3-8-4-2-5 5-3z" fill="#063C76"/>
<path transform="translate(866,906)" d="m0 0h3l-2 4-8 9-1 7 13 6h11l-1 4-14 3-9 1h-6l-5-3v-2h-3l2-4 6-6 4-7 5-6-3-1z" fill="#08488C"/>
<path transform="translate(1e3 1032)" d="m0 0 2 1 1 3 10 5 5 2h10l11-1 7-5 2 1-5 5-6 5-5 2h-11l-19-3-8-1-2-2v-5z" fill="#063D77"/>
<path transform="translate(540,841)" d="m0 0 14 1 7-1 3 2h13v2l3 3v2l8-1-3 2-14 3h-15l-5-1v-2h-3v-4l-7 1z" fill="#43F974"/>
<path transform="translate(856,887)" d="m0 0 6 1 3 3 8 4 5 3v2l5 2 7 3v2l4 2-1 3-8 7-1-4-6-1-2-3v-3h-2v-4l-5-2-7-4v-2h-3l-6-7z" fill="#16A9C0"/>
<path transform="translate(921,997)" d="m0 0 1 2 10 3 8 2h33l-2 2-19 5-17 1-9-1-10-3-1-5 5-4z" fill="#0960A4"/>
<path transform="translate(328,1008)" d="m0 0h2v2l8 4v2l4 1 4 4 1 4-2 2-7 1-12-1-1-3-6-1-3-5 1-3z" fill="#00B056"/>
<path transform="translate(639,760)" d="m0 0h4l4 10 7 5 5 8v2l6 2-5 4-3 1-7-3-8-8-6-14-1-1-2 1 2-4z" fill="#0A61A5"/>
<path transform="translate(842,910)" d="m0 0 4 1-5 3-5 2v2l-18 8-8 3-21 5-6 2-4-1 3-3 25-10 29-11z" fill="#14A0BD"/>
<path transform="translate(1085 1e3)" d="m0 0 3 1-10 8-5 3-12 3-9-1-10-1-6-1 2-5 8-4 3-1v2h13l8 2 8-2 6-3z" fill="#118FB0"/>
<path transform="translate(1093,999)" d="m0 0h12v4l-7 7-7 9-4 4 1-4-14 1-4 2 1-3 5-4h2l1-4 10-9z" fill="#072F67"/>
<path transform="translate(931,944)" d="m0 0 2 1-14 15-4 4v2l14 3 29 2 4 3v3l-9 5h-2l1-4-15-1-14-3-7-3-4-1 1-7 8-8 7-8z" fill="#063D77"/>
<path transform="translate(1129,977)" d="m0 0v3l-10 9-12 12-7-1h-9-3l9-7 9-6 4-4 11-5h7z" fill="#0D78B3"/>
<path transform="translate(916,919)" d="m0 0h5l2 6 4 6 4 2-6 3h-3v2l-13 4h-5l3-2 2-2-1-3v-6l-2-1 1-2-2-2z" fill="#0D77B4"/>
<path transform="translate(997,971)" d="m0 0h9l5 2 3-1h9l-3 3-6 3-22 3-10-1h-15l-2-3 4-2 8-1 14-2z" fill="#0BDFFB"/>
<path transform="translate(1007,934)" d="m0 0h7l-1 3h-2v2l10 3 11 6v3l-12 5-3-1-4-4v-2h-5l-8-5 1-4 9-4z" fill="#2FD2EA"/>
<path transform="translate(662,804)" d="m0 0 2 1 1 12 4 1 5 3h8l5-5 5-2-1 2h-2l-2 4-7 9h-10l-10-4-4-5 1-10 3-4h2z" fill="#15A2BD"/>
<path transform="translate(776,857)" d="m0 0h5l3 13 2 2-16 6-1-3-2-1v-5h-2l-3-3v-2l-4-1z" fill="#06417A"/>
<path transform="translate(787,853)" d="m0 0h6l2 5 5 5 3 5v2l-5 2-15 2 1-3-2-5-1-9-2-1z" fill="#0C72B3"/>
<path transform="translate(995 1e3)" d="m0 0 2 1-3 3 2 6h2v2l8 2 3 2v2h2l-1 4-5 5-6 4-4 1v-2h2l2-4v-3l-3-3-10-4-1-5 3-5z" fill="#041D48"/>
<path transform="translate(926,942)" d="m0 0 2 1-19 12-7 5-10 3-11 3-15 2-10-1h-8l2-4 8-3 3 1-2 1 10-2h21l11-4 10-5 13-8z" fill="#118EB0"/>
<path transform="translate(802,872)" d="m0 0h2l-2 6-11 11-1 3 4 2v2l5 2 7 1v5l-11 4h-7l-2-1-2-4-4-2 2-6 6-5 7-8 6-6z" fill="#094D8F"/>
<path transform="translate(1167,1155)" d="m0 0 2 1-7 9-13 12-13 13-10 8v-3l2-5 1-1-3-1 9-10 14-9 5-2 10-9h2z" fill="#03955F"/>
<path transform="translate(602,939)" d="m0 0 3 1-3 9-1 4v2l6 2v2l13-1 5 1-4 2-7 2h-8l-4-4-6-2-9-5-2-6 9-4z" fill="#041D47"/>
<path transform="translate(648,746)" d="m0 0 2 3 2 4v3h2v2l3-1 3 5 2 1v2l5 2 5 4 9 6 7 1v4l-14-1-8-6-5-5-3-1v-2l-4-1-3-5-6-8h-2l2-5z" fill="#1291B0"/>
<path transform="translate(902,925)" d="m0 0h6v4l1 8 2 2-14 6h-2l-5-9-2-4h-6v-1l16-4z" fill="#094D8F"/>
<path transform="translate(744,805)" d="m0 0 4 2-3 5-2 6 10 5-4 3-4 2-2 3-4-1 1-3-3 1-4-2-2-12v-2z" fill="#2FD1E9"/>
<path transform="translate(498,804)" d="m0 0 4 1 8 6 4 2 10 9 9 6-3 1-10-5-3-2-9-2 1 5-5-1-4-7-2-6h-2l-1-5z" fill="#26ECD7"/>
<path transform="translate(868,908)" d="m0 0 2 1-1 4 2 5 2 2 6 2-2 4-3 3-1 3h7v1h-9l-14-7 1-7 9-10z" fill="#0C73B4"/>
<path transform="translate(1022,1018)" d="m0 0h2v3h8l9 2h23l-5 5-6 2-9 1-11-1-3-1v-2l-9-1-2-4z" fill="#0960A4"/>
<path transform="translate(1e3 935)" d="m0 0h10l-2 2-9 4 1 4 7 3 4 1v2l4 2 2 2-12 5h-2v-2h-2v-2h-2l-2-4-3-1-1-2-3-1v-5l7-4h2v-2l-2-1z" fill="#16A7BF"/>
<path transform="translate(489,786)" d="m0 0 1 3 3-1 4 3v2l5 2 3 3 9 13 2 4-4-3-4-1-7-6-4 1-3 1-7-16v-3h2z" fill="#0FD7F3"/>
<path transform="translate(1279,876)" d="m0 0 5 5 9 17 6 16 6 29 2 14v5l-3-3v-6l-2-8-3-17-2-12-2-1-1-7h-2v3h-2l-6-21-5-12z" fill="#29F1CF"/>
<path transform="translate(585,999)" d="m0 0 5 1 2 2v4l11-1-3 2-13 4-20 8-5 3h-2v-2l-7-2v-2l7-2 9-1 9-5 6-7z" fill="#07386B"/>
<path transform="translate(714,820)" d="m0 0h5l-1 3 4 2 3 11 1 2-6 1-7 2h-6l2-7-7 3-2 1 2-4 14-12z" fill="#1290B0"/>
<path transform="translate(971,1059)" d="m0 0h1v9l9 4 18 2h13l10-2-4 3-7 3-13 1-3-1h-16l-10-2-3-3v-7z" fill="#041D47"/>
<path transform="translate(891,1101)" d="m0 0 16 1 41 6-4 2h-4v2l-2-1 1-3h-8l-4 2h-7l-10-4v2h-2v2l-4 2h-6l-3-5-1-5z" fill="#11D057"/>
<path transform="translate(753,823)" d="m0 0h2v2l-3 3 6 3 4 3 6 3 1 4-6 4-6-1-1-2h-3l-7-6-1-4 1-3-2-1z" fill="#15A6BF"/>
<path transform="translate(1020,1107)" d="m0 0h11l-2 4-9-1h-2v2l-10 3-9-1-4-1-8 1-5 2-7-6v-1l12-1z" fill="#13D957"/>
<path transform="translate(1169,1087)" d="m0 0 1 4v11l1 12 1 3-9 3-8 2-5-8-4-8 1-3 4 1 3 3v2l5 2 6 1 3-1v-21z" fill="#42F877"/>
<path transform="translate(997,937)" d="m0 0h4v2l-7 4h-2v5l4 1v2l4 1 1 4h2v2h2l-1 3-9 3 1-3-2-2v-3l-10-3-1-6 4-2v-2l-2-1z" fill="#1291B1"/>
<path transform="translate(1051,1061)" d="m0 0 3 4 4 6 2 1h13l21-1-4 2-25 4h-17l-3-2-1-4z" fill="#041D47"/>
<path transform="translate(1032,977)" d="m0 0m-2 1 2 1-3 3 19 3 5 2 4 1v2l5 1 3 3-6 4-5-2-8-3v-2l-11-3-9-1-2-2z" fill="#1290B0"/>
<path transform="translate(879,970)" d="m0 0 3 1-8 4-17 5-9 2h-13l-8-3v-2h-2v-3l4-1 5 1 6 1h24z" fill="#0A61A5"/>
<path transform="translate(420,767)" d="m0 0h1l3 30 2 4 2 16 6 26 2 9 8 24 11 23 3 5-1 2-6-9-10-23-8-22-4-19-5-22-4-29z" fill="#04816B"/>
<path transform="translate(782,1068)" d="m0 0 5 1 29 12 17 8-3 1-36-10-5-2-3-6v-2z" fill="#18AAC2"/>
<path transform="translate(1010,993)" d="m0 0 2 1-4 5 8 1 7 3 12 6-1 3-8 6-2-1 1-4-6-4v-2h-8v-2l-5-1-2-4z" fill="#063D77"/>
<path transform="translate(744,831)" d="m0 0 2 1 2 5 6 5h3l6 2-2 4-6 5-1-2-9-3-7-9 1-4z" fill="#1290B0"/>
<path transform="translate(489,669)" d="m0 0h1v10l-2 13-1 16v29h-1l-1-12-1-2v-17h-3l1-14 2-5 2-9z" fill="#0B69AD"/>
<path transform="translate(670,915)" d="m0 0 3 1 11 3h7l23-4h3v4l-28 5h-12l-6-3v-2l-4-1v-2z" fill="#0960A4"/>
<path transform="translate(650,883)" d="m0 0h2l-1 3-12 4-16 3h-28l-7-3 1-2 7-2 5 1 3 1h26l18-4z" fill="#0A61A5"/>
<path transform="translate(583,1018)" d="m0 0h11l2 2-3 1-5 5-1 2h-2v2l2 1-4 4-1-7 1-2-6 2-8 1-1 2v-2l-6 1-1-2h2v-2l8-4 12-2z" fill="#18F8ED"/>
<path transform="translate(1036,971)" d="m0 0 3 1-5 5-7 4-11 3-9 5-3 3-9 5-12 4-2-1 23-13 13-8 16-7z" fill="#07356F"/>
<path transform="translate(796,944)" d="m0 0 4 1-7 3-9 3-20 2h-7l-8-4 1-3 4-1-1 3 8-1 22-1z" fill="#0960A4"/>
<path transform="translate(1108,1211)" d="m0 0h2l-1 5h2l-1 4h-3l-1 4-4 5-1 3-4 1-5-1-1-3 6-9v-3l5-2z" fill="#063264"/>
<path transform="translate(756,822)" d="m0 0 5 2 9 4 8 5v2l-9 5-4-4-6-2-4-4-4-2z" fill="#2FD2EB"/>
<path transform="translate(757 1e3)" d="m0 0 3 1-1 6 3 5 7 3h14l6-1-2 2-14 4-7-1-12-5-1-3h-2l-1-7z" fill="#041D47"/>
<path transform="translate(702,873)" d="m0 0 2 2 16 3h7l7-2 8 1 9 2 2 5-5 2-3-1-1-4h-17l-5 1h-10l-12-5z" fill="#05205F"/>
<path transform="translate(687,970)" d="m0 0 2 1-3 1-1 7 4 4 8 4 1 1 7 1-2 2h-10l-10-5-5-3-4-3 1-5z" fill="#041D47"/>
<path transform="translate(669,792)" d="m0 0h1v5l-3 1-1 3-6-2-5 4-5 3-5 7-5 5-5 6-5 5-9 6-11 6 2-4 14-8 12-12 3-5 3-2 3-5 4-4 5-3 3-1v-2l4-2z" fill="#05255B"/>
<path transform="translate(805,869)" d="m0 0 4 1 2 5 4 5 3 1 2 4-1 5-3 2-1-4-9-2-3-9v-6z" fill="#1290B0"/>
<path transform="translate(500,961)" d="m0 0 9 2 14 5-2 2 2 4-10 4-10 1 1-4 5-3h4v-2l-4-1-8-4 1-2z" fill="#12DFF6"/>
<path transform="translate(715,860)" d="m0 0 3 1 3 3 9 5 11-1-2 3-7 2-7 1-11-2v-2l-4-2 2-5z" fill="#063D77"/>
<path transform="translate(901,974)" d="m0 0 1 2 22 6 13 1 2 2v4l-5 2-3-3-13-2-11-4-6-3-1-4z" fill="#062161"/>
<path transform="translate(779,897)" d="m0 0h2v4l5 3 2 4 10-2 10-3 1 3-13 4-9 1-8 1-3-1-2-5 1-4z" fill="#063C76"/>
<path transform="translate(1116,1199)" d="m0 0h2l-2 4-8 7-8 6-14 9-14 7-4 1 1-3 6-3 25-15h2l2-4z" fill="#31E47A"/>
<path transform="translate(1093,999)" d="m0 0h12v4l-7 7h-8l-5-1-4 3-2-1 10-9z" fill="#094990"/>
<path transform="translate(1075,980)" d="m0 0 14 1 1 6 9-1 6-2 2 2-12 6-4-1v2h-12l1-4 2-4v-2l-6-1z" fill="#0CE0FC"/>
<path transform="translate(846,891)" d="m0 0h6l1 7h2l2 3-1 5-6 2-2-1-4-5-2-5 1-2-2-2z" fill="#0D76B3"/>
<path transform="translate(854,1033)" d="m0 0 2 1-1 3v7l8 6 11 2v1h-12l-13-4-3-5v-5z" fill="#041D47"/>
<path transform="translate(935,936)" d="m0 0h10l2 5v6l-3 3 18 1v1l-26 1v-4l2-10v-2z" fill="#169DAF"/>
<path transform="translate(847,930)" d="m0 0 1 2 8 2h21l5-2-1 4-14 3-9 1h-6l-5-3v-2h-3l2-4z" fill="#063D77"/>
<path transform="translate(458,426)" d="m0 0h2v2h4v2l-8 7-4 2-1 4-5 4h-6l3-5 9-10zm-19 21 1 2-2-1z" fill="#2DEEDB"/>
<path transform="translate(995,1112)" d="m0 0 9 1 4 2-2 2-6 1 5 4h2v3l-3 1-1 2-7 1-3-4 2-4v-4l-4-1 1-3z" fill="#32E57B"/>
<path transform="translate(671,784)" d="m0 0h11l-1 4-10 8-2-3-10 2v2l-6 4 2-4 9-8 4-4z" fill="#063168"/>
<path transform="translate(776,857)" d="m0 0h5l3 13 2 2-9 3-4-9-1-5h-5l3-2z" fill="#094E8F"/>
<path transform="translate(575,845)" d="m0 0 4 1 1 4 8-1-3 2-14 3h-15l-5-1v-1l8-1v-2h6l1-2z" fill="#21C76F"/>
<path transform="translate(464,1127)" d="m0 0 3 1-23 12-20 11-9 4v-3l3-3 9-4h3l1-3 4-2 5-2 3-2 9-3z" fill="#2DF1D1"/>
<path transform="translate(839,894)" d="m0 0h5l-1 4 3 7v3l-9 3-2-4v-5l-3-5z" fill="#094D90"/>
<path transform="translate(474,1035)" d="m0 0 21 1 13 2-1 5h-9l-1-1h-6l-8-3-9-3z" fill="#1DE062"/>
<path transform="translate(436,1123)" d="m0 0h1l2 14-4 1h-6l-5-3 1-4z" fill="#00B056"/>
<path transform="translate(441,762)" d="m0 0h1l5 27 5 20h-2l-5-11-3-9-1-6z" fill="#0C70B4"/>
<path transform="translate(590,1034)" d="m0 0 9 3v2l3 1-1 5-5 2h-6l-2-7v-2l-3-3z" fill="#18F8ED"/>
<path transform="translate(891,929)" d="m0 0h6l4 10-1 4-5 2-5-9-2-4h-6v-1z" fill="#07487A"/>
<path transform="translate(763,898)" d="m0 0 2 1-20 11-20 12-9 3 1-3 10-5 2-3 23-11z" fill="#063069"/>
<path transform="translate(841,1318)" d="m0 0 44 1v1l-10 1h-57l-2-2z" fill="#32E67D"/>
<path transform="translate(808,903)" d="m0 0h8l1 7 1 2h-2l1 6h-2l-1 2-3-9-2-2-6 2-13 1 4-3 10-1 1-2 3-1z" fill="#05205F"/>
<path transform="translate(412,1119)" d="m0 0 2 1-3 3-2-1zm-5 4 2 1-7 7 5-1 1-2h2l-1 4-3 3-2 3-6 3h-3v-2h-2l2-4 6-7z" fill="#39EA80"/>
<path transform="translate(985,999)" d="m0 0 3 1h-2l-1 3-4 2h-4l-1 3-24 13-8 4-11 5h-2v-2l31-15 11-7 5-3h3v-2z" fill="#052458"/>
<path transform="translate(426,979)" d="m0 0 13 1 11 3 9 1 2 3-5 1-6-2-6-1-32-3v-1l13-1z" fill="#21F3CE"/>
<path transform="translate(575,842)" d="m0 0h28l-1 2-7 3-11 3h-4l-1-4-3-1z" fill="#27EDD0"/>
<path transform="translate(839,935)" d="m0 0v3l1 4 5 3h9l11-1 12 2 2 3v3l-4 1-1-4-3-1h-28l-7-6 2-6z" fill="#052160"/>
<path transform="translate(916,919)" d="m0 0h5l2 6 4 6 4 2-6 3h-3l-7-11-1-5z" fill="#1290B0"/>
<path transform="translate(527,931)" d="m0 0h9v2l11 1v3h-11l-4 3-12-5 3-3z" fill="#060F2F"/>
<path transform="translate(505,1045)" d="m0 0 4 2-5 3-2 7h-3v2l-6 4h-2l2-7 2-3v-5l8-1z" fill="#2ACF75"/>
<path transform="translate(1052,960)" d="m0 0h5l-2 5-7 2-10 1-12 5-10 6-2-1 9-6 19-9z" fill="#16A9C1"/>
<path transform="translate(1043,966)" d="m0 0h5v2l-7 4-8 1-16 7-10 6-2-1 5-4 15-8 10-5z" fill="#0E7FB2"/>
<path transform="translate(1020,1107)" d="m0 0h11l-2 4-4-1-40 1-7 1-3-3 12-1z" fill="#019955"/>
<path transform="translate(993,1008)" d="m0 0 6 2 6 3 11 7-5 7-2-1 2-4h-2l-3-3-8-3v-2h-2l-3-4z" fill="#062060"/>
<path transform="translate(662,752)" d="m0 0h2v2l4 2 3 2v2l6 2 10 7 8 3-1 3-10-4-14-8v-2l-3-1-4-5-2-2z" fill="#0CE0FC"/>
<path transform="translate(714,820)" d="m0 0h5l-3 5-4 4 4 4-3 6-3 2-3-1 2-6-7 3-2 1 2-4 14-12z" fill="#0C6FAE"/>
<path transform="translate(829,898)" d="m0 0 5 1 2 3v6l1 3-3 2-5-1-2-11-2-2z" fill="#06407A"/>
<path transform="translate(1020,1109)" d="m0 0 8 1-1 5-4 5h-2l-5 1 1-5-6-2 4-2h3v-2z" fill="#32E67F"/>
<path transform="translate(656,814)" d="m0 0h1v5l4 1 4 3 5 1h10l4-2-2 5-2 2h-10l-10-4-4-5z" fill="#0D77B1"/>
<path transform="translate(920,947)" d="m0 0 2 1-17 12-9 7-12 6h-2v2l-6 3-3 2-3-1 4-1v-2l9-5 3-3 10-4 16-12z" fill="#05436E"/>
<path transform="translate(457,612)" d="m0 0h2l-1 5-2 6h-2l-1 6-4 10-6 14-3 6h-2l3-10 5-10 5-12z" fill="#22DBD1"/>
<path transform="translate(734,810)" d="m0 0h5l1 4-2 1-1 7 4 5-4 1-4-2-2-12v-2z" fill="#0EDFFA"/>
<path transform="translate(1099,1220)" d="m0 0 1 2 3-1 1 4-3 7-4 1-5-1-1-3 6-8z" fill="#041D47"/>
<path transform="translate(1129,977)" d="m0 0v3l-8 7h-8l-1-2-5 1 3-3 11-5h7z" fill="#15A7BF"/>
<path transform="translate(718,846)" d="m0 0 2 1-12 10-19 14-10 6-3-1 5-4 12-7 11-9 10-7z" fill="#044669"/>
<path transform="translate(686,868)" d="m0 0 2 1-13 8-19 7-3-1 1-2 24-10z" fill="#1290B0"/>
<path transform="translate(863,913)" d="m0 0v3 3h-2l4 6 5 2 2 1-1 4-9-3-5-3 1-7z" fill="#118FB0"/>
<path transform="translate(1091,1097)" d="m0 0h12l-3 10-2 3v-9h-13l-7 1h-11v-1l15-1v-2z" fill="#0F83B0"/>
<path transform="translate(433,846)" d="m0 0 2 4 9 26 11 23 3 5-1 2-6-9-10-23-8-22z" fill="#018459"/>
<path transform="translate(1013,620)" d="m0 0 2 1v5l2 5 2 1v2l-2 1h-10l-1-2z" fill="#0EB8F0"/>
<path transform="translate(1068,1030)" d="m0 0h7v3l-5 5v-2l-12 1-5 1 5-5z" fill="#041D47"/>
<path transform="translate(739,907)" d="m0 0 3 2-14 7-8 2-4-1 1-3z" fill="#1290B0"/>
<path transform="translate(492,788)" d="m0 0 5 3v2l5 2 3 3 4 7-7-2-6-7-4-1-2-6z" fill="#18F6EE"/>
<path transform="translate(620,777)" d="m0 0 2 1-4 5-5 3-8 3-13 3-11-1v-1l15-2 13-4 10-6z" fill="#0B4676"/>
<path transform="translate(865,980)" d="m0 0h5l-4 4-16 8-15 7h-2l2-4 16-7 11-5h2z" fill="#062860"/>
<path transform="translate(791,853)" d="m0 0h2l2 5 5 5 3 5v2l-5 2h-8v-1l7-1-4-8v-3h-2l-1-4z" fill="#1290B0"/>
<path transform="translate(806,1079)" d="m0 0h6l21 10-3 1-23-7z" fill="#15B3CB"/>
<path transform="translate(1023,993)" d="m0 0 7 2 5 1 12 5-1 4-5 2 2-4h-2v-2l-6-1-9-3-5-2z" fill="#0A62A6"/>
<path transform="translate(1279,876)" d="m0 0 5 5 9 17 1 4-4-2-2-6-3-1-6-15z" fill="#19B7C6"/>
<path transform="translate(756,884)" d="m0 0 2 1-10 5-7 3-7 2-10 2v-2l20-8 9-2z" fill="#26BBDA"/>
<path transform="translate(706,834)" d="m0 0h3l-1 6 1 2-12 5-3-1 4-4 3-5z" fill="#118EB0"/>
<path transform="translate(452,800)" d="m0 0 4 5 3 4 2 4v6l-4 1-4-10-1-3z" fill="#080533"/>
<path transform="translate(294 1e3)" d="m0 0 3 1v3h-2v3l-4 4h-2l-1 3-6 4-1-2h2l1-5h3l-1-3h2l2-4z" fill="#32E57B"/>
<path transform="translate(669,792)" d="m0 0h1v5l-3 1-1 3-6-2-5 4h-2l2-4 4-2v-2l4-2z" fill="#041F4B"/>
<path transform="translate(488,665)" d="m0 0 1 2-4 20-2 5-2 16h-1v-14l6-28z" fill="#062B63"/>
<path transform="translate(435,452)" d="m0 0 2 3-4 2zm-3 5 1 3-7 11-9 12h-2l2-5 11-15z" fill="#40F1DA"/>
<path transform="translate(730,849)" d="m0 0 1 3h2l3 5 8 5-2 5-8-6-2-1v-2h-2l-1-7z" fill="#0B66A6"/>
<path transform="translate(922,937)" d="m0 0h2v2h-4l-1 3-6 4-7 1v-2l-3-1 9-4z" fill="#16DBF6"/>
<path transform="translate(1e3 988)" d="m0 0h5l-1 3-11 6-12 4-2-1z" fill="#06326B"/>
<path transform="translate(713,925)" d="m0 0 3 1-23 11-18 7h-2v-2l16-6 13-6z" fill="#06265D"/>
<path transform="translate(671,784)" d="m0 0h11l-1 4-8 6-1-5-3-1-4-1z" fill="#075877"/>
<path transform="translate(655,815)" d="m0 0h1l2 6 2 4 5 1 5 2h10l2-1-2 4-1 1-9-1-12-6-3-3z" fill="#064072"/>
<path transform="translate(469,582)" d="m0 0h1l-1 9-5 13h-2l1-11 5-10z" fill="#28F0C7"/>
<path transform="translate(1036,971)" d="m0 0 3 1-5 5-7 1-10 4-3-1 16-8z" fill="#085088"/>
<path transform="translate(1109,994)" d="m0 0h3l-2 4-4 3-4-1-9-1 5-4h8z" fill="#0A66A6"/>
<path transform="translate(851,915)" d="m0 0 3 1-15 10-8 7-6 4h-2l2-4 9-6 8-6z" fill="#05456B"/>
<path transform="translate(427,693)" d="m0 0h1v7l-5 24-2 1 1-12 4-19z" fill="#33F297"/>
<path transform="translate(972,985)" d="m0 0 10 1 1 3-11 2-8-1-2-1 2-2 5-1z" fill="#0A93DA"/>
<path transform="translate(457,906)" d="m0 0 3 1 2 6h2l-1 5-6-2v-5h-3v-4z" fill="#19CD6C"/>
<path transform="translate(763,898)" d="m0 0 2 1-18 10-10 4-6 3-3-1 16-8z" fill="#07437E"/>
<path transform="translate(791,888)" d="m0 0 4 2 3 3v2l9 2v4l-1-2h-7l-5-3-4-4z" fill="#0A63A5"/>
<path transform="translate(527,494)" d="m0 0v3l-3 4-2 4-6 8-5 2 2-5 9-11z" fill="#0D70AD"/>
<path transform="translate(803,1317)" d="m0 0 29 1v1l-14 1v1l-18-1-2-2z" fill="#3FF87E"/>
<path transform="translate(485,689)" d="m0 0h1l-1 34h-1v-17h-3v-6h2l1-9z" fill="#0A8FD6"/>
<path transform="translate(1112,1210)" d="m0 0 1 4 2 4-4 7-5 4 3-9 2-4h-2l1-4z" fill="#0E7FB6"/>
<path transform="translate(664,811)" d="m0 0 1 3 3-1 2 3 13 3-1 3h-8l-6-4-3-1z" fill="#0CE0FC"/>
<path transform="translate(464,1127)" d="m0 0 3 1-23 12-5 2 2-4 2-2 9-3z" fill="#23D9C5"/>
<path transform="translate(944,1109)" d="m0 0h3l-2 4-6 7-3-4v-5h3l1-1z" fill="#30E68F"/>
<path transform="translate(958,1015)" d="m0 0h2v2l-16 8-11 5h-2v-2z" fill="#06275D"/>
<path transform="translate(1112,984)" d="m0 0 2 1-1 2 7-1-2 4-4 1-5 1-4-4 5-3z" fill="#1291B0"/>
<path transform="translate(1286,894)" d="m0 0h2l4 7 4 4 1 4-4-2-1 4h-2z" fill="#24E8CB"/>
<path transform="translate(1167,1155)" d="m0 0 2 1-7 9-7 6-4-1 13-12h2z" fill="#1395B2"/>
<path transform="translate(608,839)" d="m0 0v3l-8 4-2-1 4-2h-18l-12-1v-1h23z" fill="#1398BB"/>
<path transform="translate(1086,1120)" d="m0 0 2 1v2l-4 1-1 2h-11l-1-3z" fill="#17ADC6"/>
<path transform="translate(508,972)" d="m0 0 6 1 3 3-4 2-10 1 1-4z" fill="#30D2EB"/>
<path transform="translate(879,376)" d="m0 0 11 2 10 4-4 1-20-4z" fill="#0A6AAE"/>
<path transform="translate(1025,980)" d="m0 0h2v2l-9 6-4-1-5 3-3-1 8-5z" fill="#041D48"/>
<path transform="translate(670,799)" d="m0 0 7 1 8 6-4 1-9-4-4-1z" fill="#0DE0FA"/>
<path transform="translate(660,1053)" d="m0 0 3 1-4 1-2 9 6 1v1h-10l-1-3 3-7z" fill="#1394B1"/>
<path transform="translate(444,982)" d="m0 0 15 2 2 3-5 1-6-2-6-1-7-1v-1z" fill="#1CD2C6"/>
<path transform="translate(839,935)" d="m0 0v3l1 4 5 3h8l1 2-3 1h-8l-7-6 2-6z" fill="#051F5E"/>
<path transform="translate(802,947)" d="m0 0 4 1-4 3-16 8-5 1 3-3 10-5h2l1-3z" fill="#062C63"/>
<path transform="translate(866,906)" d="m0 0h3l-2 4-8 9-4 2 2-4 4-5-3-1z" fill="#053966"/>
<path transform="translate(1059,945)" d="m0 0 8 1 4 2-5 1h-18l2-2h9z" fill="#27EFD8"/>
<path transform="translate(662,884)" d="m0 0 3 1-8 5-19 9-3-1h2l1-3 8-2 15-8z" fill="#052A60"/>
<path transform="translate(1115,1203)" d="m0 0 4 1-8 8-5 1-5 4-2-1 7-6 8-6z" fill="#047768"/>
<path transform="translate(608 1e3)" d="m0 0h7l10 3v3l2 1-5-1-9-3-10-1v-1z" fill="#1188A8"/>
<path transform="translate(1131,977)" d="m0 0 2 1-1 2 5-1-1 2-14 7-3 2 2-4z" fill="#25E7E0"/>
<path transform="translate(658,819)" d="m0 0 4 2 3 2 5 1h10l4-2-2 5-2 1-13-2-7-4z" fill="#118EB0"/>
<path transform="translate(914,1104)" d="m0 0 13 1 21 3-4 2h-4v2l-2-1 1-3-13-1-12-2z" fill="#069F56"/>
<path transform="translate(752,826)" d="m0 0 5 2 3 2v2l12 3-2 5-5-4-6-2-4-4-4-2z" fill="#0DDFFB"/>
<path transform="translate(1095,1118)" d="m0 0 1 2-3 7-10-1 1-3 9-1z" fill="#0C729D"/>
<path transform="translate(1169,1087)" d="m0 0 1 4v11l1 12 1 3-4 1v-28z" fill="#32F7AA"/>
<path transform="translate(1091,1097)" d="m0 0h12l-3 10-2 3 1-7 1-4h-18v-1z" fill="#08437F"/>
<path transform="translate(1130,973)" d="m0 0h5l-1 4-7 2h-6l-1-2z" fill="#0CE0FC"/>
<path transform="translate(976,960)" d="m0 0h3v2l2 1-4 4-9-3-3-2 9-1z" fill="#118FB0"/>
<path transform="translate(802,872)" d="m0 0h2l-2 6-12 12v-3l11-11zm-14 18m-1 1m-2 1 2 1-6 5 2-4z" fill="#084784"/>
<path transform="translate(1222,1029)" d="m0 0h3l-1 6-5 9-4 4 2-8 3-1z" fill="#0D6A9B"/>
<path transform="translate(1086 1e3)" d="m0 0 6 2h7l-1 3h-8l-5-1-4 3-2-1z" fill="#063F7B"/>
<path transform="translate(446,641)" d="m0 0 1 3-7 15h-2l3-10 3-6z" fill="#27EFD8"/>
<path transform="translate(1178,1071)" d="m0 0 2 1-5 4-16 6-3-1z" fill="#028F5A"/>
<path transform="translate(782,859)" d="m0 0h2l2 5 1 8 2 1-6 1 1-3-2-5z" fill="#118DB0"/>
<path transform="translate(1274,1057)" d="m0 0h2l-2 6-5 9h-2l1-6 4-2-1-4z" fill="#33E67A"/>
<path transform="translate(718,846)" d="m0 0 2 1-12 10-8 5 2-4 12-9z" fill="#054468"/>
<path transform="translate(427,1145)" d="m0 0m-2 1h2l-1 4-11 5v-3l3-3z" fill="#45F4CD"/>
<path transform="translate(1020,1107)" d="m0 0h11l-2 4-4-1-18-1v-1z" fill="#049662"/>
<path transform="translate(1059,1102)" d="m0 0h8l-3 5h-2l-1 2-5-4z" fill="#0C6BA5"/>
<path transform="translate(909 1e3)" d="m0 0 4 1-9 6-4 3-6 1 3-3 3-2h3v-2z" fill="#05275D"/>
<path transform="translate(1051,965)" d="m0 0 2 1v2l-3 1-3 3-5 2-3-1 5-4z" fill="#19E2EE"/>
<path transform="translate(1043,966)" d="m0 0h5v2l-7 4-5-1-1-3z" fill="#118CB2"/>
<path transform="translate(446,884)" d="m0 0 3 3 9 17-1 2-6-9-5-11z" fill="#009556"/>
<path transform="translate(408,1128)" d="m0 0h2l-1 4-4 4h-5l1-4 6-2z" fill="#44FA74"/>
<path transform="translate(1292,991)" d="m0 0h1v11l-1 5-1 6-2-2 1-9z" fill="#3DF693"/>
<path transform="translate(806,903)" d="m0 0h2l1 3-13 4-2-2z" fill="#07346C"/>
<path transform="translate(1107,1220)" d="m0 0h2l-3 10-5 4v-5l5-6z" fill="#094685"/>
<path transform="translate(907,923)" d="m0 0 2 1 3 10-3 4-1-3v-6l-2-1 1-2-2-2z" fill="#118FB0"/>
<path transform="translate(1093,1139)" d="m0 0 2 1-2 4-4 2-1 2-5 1 3-5z" fill="#062F5F"/>
<path transform="translate(1015,1041)" d="m0 0h10l6 1-1 2h-10l-5-2z" fill="#0533A4"/>
<path transform="translate(865,980)" d="m0 0h5l-4 4-10 5h-2l1-3 9-3z" fill="#062A61"/>
<path transform="translate(1138,969)" d="m0 0h3l1 3-7 4v-3h-5l2-2z" fill="#2BD6EA"/>
<path transform="translate(689,936)" d="m0 0 4 1-18 7h-2v-2z" fill="#05255C"/>
<path transform="translate(289 1e3)" d="m0 0h2l-2 4-2 5-5 2-2 1 2-4z" fill="#51FA89"/>
<path transform="translate(772,963)" d="m0 0 3 1-11 5-10 3 1-3 13-4z" fill="#06265E"/>
<path transform="translate(522,925)" d="m0 0 12 2-4 3h-6l-2-2z" fill="#07092C"/>
<path transform="translate(560,840)" d="m0 0 12 1 3 2-11 1z" fill="#31F7B1"/>
<path transform="translate(448,648)" d="m0 0h1v13l-2 2-2 4 1-10z" fill="#063366"/>
<path transform="translate(295,1189)" d="m0 0 2 1-1 1 2 2-1 1h-11l1-2z" fill="#5EFABA"/>
<path transform="translate(817,1082)" d="m0 0 6 2 10 5-3 1-10-3v-2z" fill="#159EB6"/>
<path transform="translate(681,827)" d="m0 0v3l-2 2-9-1-2-3h12z" fill="#054367"/>
<path transform="translate(481,706)" d="m0 0h3v13l-3-1z" fill="#07AEF0"/>
<path transform="translate(489,669)" d="m0 0h1v10l-2 4-1-2-2 3 1-6z" fill="#0A64A9"/>
<path transform="translate(1097,1111)" d="m0 0 1 3-5 9-5-1 5-4z" fill="#128FB2"/>
<path transform="translate(892,1012)" d="m0 0 2 1-5 5-8 3-4 1 5-4z" fill="#05225A"/>
<path transform="translate(463,984)" d="m0 0h8l2 2-1 1h-11l-1-2z" fill="#1EF5CB"/>
<path transform="translate(884,970)" d="m0 0 3 1-5 2v2l-6 3-3 2-3-1 4-1v-2z" fill="#062E66"/>
<path transform="translate(721,852)" d="m0 0 2 1-6 7-5 4-2-1z" fill="#063169"/>
<path transform="translate(734,839)" d="m0 0v3l-3 5-6 5-2-1 3-5z" fill="#073C73"/>
<path transform="translate(746,828)" d="m0 0v3l-9 7-1-2-2-1z" fill="#053763"/>
<path transform="translate(651,801)" d="m0 0h2l-2 4-6 8-4-1 3-2 3-5z" fill="#06346D"/>
<path transform="translate(424,798)" d="m0 0 2 3v16h-1l-2-16z" fill="#027A62"/>
<path transform="translate(431,685)" d="m0 0h1v7l-1 7h-2l-1 6h-1l1-9z" fill="#009553"/>
<path transform="translate(718,1043)" d="m0 0 8 2v3h-6v-2l-4-1z" fill="#15C6E5"/>
<path transform="translate(1e3 986)" d="m0 0 2 1-13 8-3 1 2-4z" fill="#0B6DB1"/>
<path transform="translate(1023,976)" d="m0 0h6l-4 3-8 3-3-1z" fill="#06427D"/>
<path transform="translate(743,909)" d="m0 0 2 1-5 3-6 4-7 1 1-2z" fill="#06336C"/>
<path transform="translate(500,896)" d="m0 0 5 5 7 1v1h-10l-3-2z" fill="#060C2A"/>
<path transform="translate(695,861)" d="m0 0h2l-1 3-6 4-6 1 3-4 7-3z" fill="#0D79B2"/>
<path transform="translate(641,813)" d="m0 0 2 1-8 10-4 3-2-1 9-9z" fill="#062A61"/>
<path transform="translate(736,937)" d="m0 0h5v4l-9-1v-2z" fill="#060C2A"/>
<path transform="translate(608,839)" d="m0 0v3l-8 4-2-1 4-2-7-1v-1z" fill="#0D7EA9"/>
<path transform="translate(946,959)" d="m0 0h7l6 1-1 3-8-1z" fill="#0A61A5"/>
<path transform="translate(809,851)" d="m0 0 6 2 4 3-1 2-9-4z" fill="#1BB2C6"/>
<path transform="translate(596,788)" d="m0 0 4 1-8 3-11-1v-1z" fill="#0C5689"/>
<path transform="translate(468,588)" d="m0 0 1 3-5 13h-2l3-12 1-2h2z" fill="#1391B5"/>
<path transform="translate(505,522)" d="m0 0 1 4-2 3h-2l-2 7h-2l2-6z" fill="#0E78B0"/>
<path transform="translate(985,999)" d="m0 0 3 1h-2l-1 3-8 3-3-1 4-2h3v-2z" fill="#052B5F"/>
<path transform="translate(832,929)" d="m0 0 3 1-10 7h-2l2-4z" fill="#064070"/>
<path transform="translate(711,826)" d="m0 0 2 1-7 8-6 3 2-4z" fill="#075585"/>
<path transform="translate(1053,1035)" d="m0 0 3 1-5 5-4 3 1-5z" fill="#05255C"/>
<path transform="translate(1029,976)" d="m0 0h3v2l-5 3-6 1 1-3z" fill="#062C65"/>
<path transform="translate(1041,961)" d="m0 0 4 1h-3v2l-9 3 1-3z" fill="#20D7F2"/>
<path transform="translate(494,539)" d="m0 0 1 4-3 5-2-3 1-4z" fill="#1BCCC7"/>
<path transform="translate(900,382)" d="m0 0 9 3 1 2-7-1-5-2z" fill="#08A3E7"/>
</svg>
